<?xml version="1.0" encoding="UTF-8" standalone="no"?>
<!-- Created with Inkscape (http://www.inkscape.org/) -->

<svg
   xmlns:dc="http://purl.org/dc/elements/1.1/"
   xmlns:cc="http://creativecommons.org/ns#"
   xmlns:rdf="http://www.w3.org/1999/02/22-rdf-syntax-ns#"
   xmlns:svg="http://www.w3.org/2000/svg"
   xmlns="http://www.w3.org/2000/svg"
   xmlns:sodipodi="http://sodipodi.sourceforge.net/DTD/sodipodi-0.dtd"
   xmlns:inkscape="http://www.inkscape.org/namespaces/inkscape"
   version="1.1"
   id="svg2"
   xml:space="preserve"
   width="610.06946"
   height="397.34564"
   viewBox="0 0 610.06946 397.34564"
   sodipodi:docname="Figure_S22.svg"
   inkscape:version="0.92.4 (5da689c313, 2019-01-14)"><metadata
     id="metadata8"><rdf:RDF><cc:Work
         rdf:about=""><dc:format>image/svg+xml</dc:format><dc:type
           rdf:resource="http://purl.org/dc/dcmitype/StillImage" /><dc:title /></cc:Work></rdf:RDF></metadata><defs
     id="defs6"><clipPath
       clipPathUnits="userSpaceOnUse"
       id="clipPath20"><path
         d="m 39.92,168.71 h 95.29 V 276.59 H 39.92 Z"
         id="path18"
         inkscape:connector-curvature="0" /></clipPath><clipPath
       clipPathUnits="userSpaceOnUse"
       id="clipPath34"><path
         d="M 38.97,167.76 H 145.66 V 287.05 H 38.97 Z"
         id="path32"
         inkscape:connector-curvature="0" /></clipPath><clipPath
       clipPathUnits="userSpaceOnUse"
       id="clipPath58"><path
         d="m 39.92,168.71 h 95.29 V 276.59 H 39.92 Z"
         id="path56"
         inkscape:connector-curvature="0" /></clipPath><clipPath
       clipPathUnits="userSpaceOnUse"
       id="clipPath102"><path
         d="M 146.61,168.71 H 241.9 V 276.59 H 146.61 Z"
         id="path100"
         inkscape:connector-curvature="0" /></clipPath><clipPath
       clipPathUnits="userSpaceOnUse"
       id="clipPath116"><path
         d="M 145.66,167.76 H 252.35 V 287.05 H 145.66 Z"
         id="path114"
         inkscape:connector-curvature="0" /></clipPath><clipPath
       clipPathUnits="userSpaceOnUse"
       id="clipPath140"><path
         d="M 146.61,168.71 H 241.9 V 276.59 H 146.61 Z"
         id="path138"
         inkscape:connector-curvature="0" /></clipPath><clipPath
       clipPathUnits="userSpaceOnUse"
       id="clipPath168"><path
         d="M 253.31,168.71 H 348.6 V 276.59 H 253.31 Z"
         id="path166"
         inkscape:connector-curvature="0" /></clipPath><clipPath
       clipPathUnits="userSpaceOnUse"
       id="clipPath182"><path
         d="M 252.36,167.76 H 359.05 V 287.05 H 252.36 Z"
         id="path180"
         inkscape:connector-curvature="0" /></clipPath><clipPath
       clipPathUnits="userSpaceOnUse"
       id="clipPath206"><path
         d="M 253.31,168.71 H 348.6 V 276.59 H 253.31 Z"
         id="path204"
         inkscape:connector-curvature="0" /></clipPath><clipPath
       clipPathUnits="userSpaceOnUse"
       id="clipPath234"><path
         d="m 39.92,49.42 h 95.29 V 157.3 H 39.92 Z"
         id="path232"
         inkscape:connector-curvature="0" /></clipPath><clipPath
       clipPathUnits="userSpaceOnUse"
       id="clipPath248"><path
         d="M 38.97,48.47 H 145.66 V 167.76 H 38.97 Z"
         id="path246"
         inkscape:connector-curvature="0" /></clipPath><clipPath
       clipPathUnits="userSpaceOnUse"
       id="clipPath272"><path
         d="m 39.92,49.42 h 95.29 V 157.3 H 39.92 Z"
         id="path270"
         inkscape:connector-curvature="0" /></clipPath><clipPath
       clipPathUnits="userSpaceOnUse"
       id="clipPath328"><path
         d="M 146.61,49.42 H 241.9 V 157.3 h -95.29 z"
         id="path326"
         inkscape:connector-curvature="0" /></clipPath><clipPath
       clipPathUnits="userSpaceOnUse"
       id="clipPath342"><path
         d="M 145.66,48.47 H 252.35 V 167.76 H 145.66 Z"
         id="path340"
         inkscape:connector-curvature="0" /></clipPath><clipPath
       clipPathUnits="userSpaceOnUse"
       id="clipPath366"><path
         d="M 146.61,49.42 H 241.9 V 157.3 h -95.29 z"
         id="path364"
         inkscape:connector-curvature="0" /></clipPath><clipPath
       clipPathUnits="userSpaceOnUse"
       id="clipPath406"><path
         d="M 253.31,49.42 H 348.6 V 157.3 h -95.29 z"
         id="path404"
         inkscape:connector-curvature="0" /></clipPath><clipPath
       clipPathUnits="userSpaceOnUse"
       id="clipPath420"><path
         d="M 252.36,48.47 H 359.05 V 167.76 H 252.36 Z"
         id="path418"
         inkscape:connector-curvature="0" /></clipPath><clipPath
       clipPathUnits="userSpaceOnUse"
       id="clipPath444"><path
         d="M 253.31,49.42 H 348.6 V 157.3 h -95.29 z"
         id="path442"
         inkscape:connector-curvature="0" /></clipPath></defs><sodipodi:namedview
     pagecolor="#ffffff"
     bordercolor="#666666"
     borderopacity="1"
     objecttolerance="10"
     gridtolerance="10"
     guidetolerance="10"
     inkscape:pageopacity="0"
     inkscape:pageshadow="2"
     inkscape:window-width="1920"
     inkscape:window-height="1121"
     id="namedview4"
     showgrid="false"
     fit-margin-top="0"
     fit-margin-left="0"
     fit-margin-right="0"
     fit-margin-bottom="0"
     inkscape:zoom="3.4766084"
     inkscape:cx="85.951838"
     inkscape:cy="206.96535"
     inkscape:window-x="-9"
     inkscape:window-y="-9"
     inkscape:window-maximized="1"
     inkscape:current-layer="g454" /><g
     id="g10"
     inkscape:groupmode="layer"
     inkscape:label="Figure_S22"
     transform="matrix(1.3333333,0,0,-1.3333333,-4.9466665,415.12511)"><g
   id="g12" /><g
   id="g14"><g
     id="g16"
     clip-path="url(#clipPath20)"><path
       d="m 40.39,170.57 9.27,0.07 6.58,0.08 5.1,0.08 4.17,0.08 3.52,0.18 3.06,0.17 2.69,0.17 2.41,0.17 2.18,-0.64 1.99,-0.05 1.83,-0.06 1.69,-0.05 1.58,-0.07 1.47,-0.06 1.39,-0.08 1.31,-0.07 1.23,-0.09 1.18,-0.1 1.11,-0.12 1.06,-0.2 1.02,-0.06 h 0.97 0.94 0.89 l 0.87,-0.06 0.83,0.08 0.8,0.03 0.78,-0.01 0.75,-0.01 0.72,-0.01 0.7,-0.01 h 0.69 0.66 0.64 0.63 0.61 0.59 0.58 0.57 0.55 0.54 0.52 0.52 0.5 0.49 0.48 0.47 0.47 0.45 0.44 0.44 0.42 0.42 0.42 0.4 0.4 0.39 0.38 0.38 0.37 0.37 0.36 0.35 0.35 0.35 0.34 0.33 0.33 0.32 0.32 0.32 0.31 0.31 0.3 0.3 0.29 0.29 0.29 0.29 0.28 0.27 0.28 0.27 0.26 0.27 0.26 0.26 0.25 0.26 0.25 0.24 0.25 0.24 0.24 0.24 0.23 0.23 0.23 0.23 0.23 0.22 0.22 0.22 0.22 0.21 0.21 0.21 0.21 0.21 0.2 0.21 0.2 0.2 0.2 0.19 0.2 0.19 0.19"
       style="fill:none;stroke:#8f0505;stroke-width:1.13;stroke-linecap:round;stroke-linejoin:round;stroke-miterlimit:10;stroke-dasharray:3.38, 5.63;stroke-dashoffset:0;stroke-opacity:1"
       id="path22"
       inkscape:connector-curvature="0" /></g></g><g
   id="g24"><path
     d="m 39.92,168.71 h 95.29 V 276.6 H 39.92 V 168.71"
     style="fill:none;stroke:#000000;stroke-width:0.75;stroke-linecap:round;stroke-linejoin:round;stroke-miterlimit:10;stroke-dasharray:none;stroke-opacity:1"
     id="path26"
     inkscape:connector-curvature="0" /></g><g
   id="g28"><g
     id="g30"
     clip-path="url(#clipPath34)"><text
   transform="matrix(1,0,0,-1,55.11,132.6)"
   style="font-variant:normal;font-weight:normal;font-size:8px;font-family:Helvetica;-inkscape-font-specification:Helvetica;writing-mode:lr-tb;fill:#000000;fill-opacity:1;fill-rule:nonzero;stroke:none"
   id="text38"><tspan
     x="0 4 8.448 12.896 15.12 16.896 21.344 25.792 28.455999 30.68 35.127998 39.576 44.023998 46.248001 50.695999 52.919998 55.584 62.248001"
     y="0"
     sodipodi:role="line"
     id="tspan36">seafloor depth (m)</tspan></text>

<text
   transform="matrix(0,1,1,0,7.74,194.78)"
   style="font-variant:normal;font-weight:normal;font-size:8px;font-family:Helvetica;-inkscape-font-specification:Helvetica;writing-mode:lr-tb;fill:#000000;fill-opacity:1;fill-rule:nonzero;stroke:none"
   id="text42"><tspan
     x="0 5.336 7.112 11.56 18.224001 22.672001 26.672001 30.672001 32.896 37.344002 40.007999"
     y="0"
     sodipodi:role="line"
     id="tspan40">Biomass gr </tspan></text>

<text
   transform="matrix(0,1,1,0,7.74,237.02)"
   style="font-variant:normal;font-weight:normal;font-size:8px;font-family:Helvetica;-inkscape-font-specification:Helvetica;writing-mode:lr-tb;fill:#000000;fill-opacity:1;fill-rule:nonzero;stroke:none"
   id="text46"><tspan
     x="0"
     y="0"
     id="tspan44">m</tspan></text>

<text
   transform="matrix(0,1,1,0,3.77,243.68)"
   style="font-variant:normal;font-weight:normal;font-size:6px;font-family:Helvetica;-inkscape-font-specification:Helvetica;writing-mode:lr-tb;fill:#000000;fill-opacity:1;fill-rule:nonzero;stroke:none"
   id="text50"><tspan
     x="0 3.5039999"
     y="0"
     sodipodi:role="line"
     id="tspan48">−2</tspan></text>

</g></g><g
   id="g52"><g
     id="g54"
     clip-path="url(#clipPath58)"><path
       d="m 40.39,168.71 h 9.27 6.58 5.1 4.17 3.52 3.06 2.69 2.41 l 2.18,1.4 1.99,0.16 1.83,0.15 1.69,0.13 1.58,0.12 1.47,0.11 1.39,0.11 1.31,0.11 1.23,0.11 1.18,0.14 1.11,0.17 1.06,0.27 1.02,0.08 h 0.97 0.94 0.89 l 0.87,0.08 0.83,-0.09 0.8,-0.03 h 0.78 l 0.75,0.01 0.72,0.02 h 0.7 0.69 l 0.66,0.01 h 0.64 0.63 0.61 0.59 0.58 0.57 0.55 0.54 0.52 0.52 0.5 0.49 0.48 0.47 0.47 0.45 0.44 0.44 0.42 0.42 0.42 0.4 0.4 0.39 0.38 0.38 0.37 0.37 0.36 0.35 0.35 0.35 0.34 0.33 0.33 0.32 0.32 0.32 0.31 0.31 0.3 0.3 0.29 0.29 0.29 0.29 0.28 0.27 0.28 0.27 0.26 0.27 0.26 0.26 0.25 0.26 0.25 0.24 0.25 0.24 0.24 0.24 0.23 0.23 0.23 0.23 0.23 0.22 0.22 0.22 0.22 0.21 0.21 0.21 0.21 0.21 0.2 0.21 0.2 0.2 0.2 0.19 0.2 0.19 0.19"
       style="fill:none;stroke:#5c88c5;stroke-width:1.13;stroke-linecap:round;stroke-linejoin:round;stroke-miterlimit:10;stroke-dasharray:3.38, 5.63;stroke-dashoffset:0;stroke-opacity:1"
       id="path60"
       inkscape:connector-curvature="0" /><path
       d="m 40.39,182.74 9.27,-1.48 6.58,-0.89 5.1,-0.58 4.17,-0.44 3.52,-2.07 3.06,-1.63 2.69,-1.25 2.41,-1.01 2.18,-0.4 1.99,-0.66 1.83,-0.53 1.69,-0.44 1.58,-0.36 1.47,-0.3 1.39,-0.28 1.31,-0.25 1.23,-0.25 1.18,-0.27 1.11,-0.33 1.06,-0.48 1.02,-0.13 h 0.97 0.94 0.89 0.87 0.83 0.8 0.78 0.75 0.72 0.7 0.69 0.66 0.64 0.63 0.61 0.59 0.58 0.57 0.55 0.54 0.52 0.52 0.5 0.49 0.48 0.47 0.47 0.45 0.44 0.44 0.42 0.42 0.42 0.4 0.4 0.39 0.38 0.38 0.37 0.37 0.36 0.35 0.35 0.35 0.34 0.33 0.33 0.32 0.32 0.32 0.31 0.31 0.3 0.3 0.29 0.29 0.29 0.29 0.28 0.27 0.28 0.27 0.26 0.27 0.26 0.26 0.25 0.26 0.25 0.24 0.25 0.24 0.24 0.24 0.23 0.23 0.23 0.23 0.23 0.22 0.22 0.22 0.22 0.21 0.21 0.21 0.21 0.21 0.2 0.21 0.2 0.2 0.2 0.19 0.2 0.19 0.19"
       style="fill:none;stroke:#000000;stroke-width:1.13;stroke-linecap:round;stroke-linejoin:round;stroke-miterlimit:10;stroke-dasharray:none;stroke-opacity:1"
       id="path62"
       inkscape:connector-curvature="0" /></g></g><g
   id="g64"><path
   d="M 40.39,168.71 H 134"
   style="fill:none;stroke:#000000;stroke-width:0.75;stroke-linecap:round;stroke-linejoin:round;stroke-miterlimit:10;stroke-dasharray:none;stroke-opacity:1"
   id="path66"
   inkscape:connector-curvature="0" /><path
   d="m 40.39,168.71 v -4.75"
   style="fill:none;stroke:#000000;stroke-width:0.75;stroke-linecap:round;stroke-linejoin:round;stroke-miterlimit:10;stroke-dasharray:none;stroke-opacity:1"
   id="path68"
   inkscape:connector-curvature="0" /><path
   d="m 77.19,168.71 v -4.75"
   style="fill:none;stroke:#000000;stroke-width:0.75;stroke-linecap:round;stroke-linejoin:round;stroke-miterlimit:10;stroke-dasharray:none;stroke-opacity:1"
   id="path70"
   inkscape:connector-curvature="0" /><path
   d="m 124.73,168.71 v -4.75"
   style="fill:none;stroke:#000000;stroke-width:0.75;stroke-linecap:round;stroke-linejoin:round;stroke-miterlimit:10;stroke-dasharray:none;stroke-opacity:1"
   id="path72"
   inkscape:connector-curvature="0" /><path
   d="M 39.92,168.71 V 276.6"
   style="fill:none;stroke:#000000;stroke-width:0.75;stroke-linecap:round;stroke-linejoin:round;stroke-miterlimit:10;stroke-dasharray:none;stroke-opacity:1"
   id="path76"
   inkscape:connector-curvature="0" /><path
   d="M 39.92,168.71 H 35.16"
   style="fill:none;stroke:#000000;stroke-width:0.75;stroke-linecap:round;stroke-linejoin:round;stroke-miterlimit:10;stroke-dasharray:none;stroke-opacity:1"
   id="path78"
   inkscape:connector-curvature="0" /><path
   d="M 39.92,222.65 H 35.16"
   style="fill:none;stroke:#000000;stroke-width:0.75;stroke-linecap:round;stroke-linejoin:round;stroke-miterlimit:10;stroke-dasharray:none;stroke-opacity:1"
   id="path80"
   inkscape:connector-curvature="0" /><path
   d="M 39.92,276.6 H 35.16"
   style="fill:none;stroke:#000000;stroke-width:0.75;stroke-linecap:round;stroke-linejoin:round;stroke-miterlimit:10;stroke-dasharray:none;stroke-opacity:1"
   id="path82"
   inkscape:connector-curvature="0" /><text
   transform="matrix(1,0,0,-1,24.85,165.12)"
   style="font-variant:normal;font-weight:normal;font-size:10px;font-family:Helvetica;-inkscape-font-specification:Helvetica;writing-mode:lr-tb;fill:#000000;fill-opacity:1;fill-rule:nonzero;stroke:none"
   id="text86"><tspan
     x="0"
     y="0"
     id="tspan84">0</tspan></text>

<text
   transform="matrix(1,0,0,-1,19.29,219.06)"
   style="font-variant:normal;font-weight:normal;font-size:10px;font-family:Helvetica;-inkscape-font-specification:Helvetica;writing-mode:lr-tb;fill:#000000;fill-opacity:1;fill-rule:nonzero;stroke:none"
   id="text90"><tspan
     x="0 5.5599999"
     y="0"
     sodipodi:role="line"
     id="tspan88">15</tspan></text>

<text
   transform="matrix(1,0,0,-1,19.29,273.01)"
   style="font-variant:normal;font-weight:normal;font-size:10px;font-family:Helvetica;-inkscape-font-specification:Helvetica;writing-mode:lr-tb;fill:#000000;fill-opacity:1;fill-rule:nonzero;stroke:none"
   id="text94"><tspan
     x="0 5.5599999"
     y="0"
     sodipodi:role="line"
     id="tspan92">30</tspan></text>

</g><g
   id="g96"><g
     id="g98"
     clip-path="url(#clipPath102)"><path
       d="m 147.08,186.38 9.27,0.35 6.58,0.1 5.1,0.16 4.17,0.19 3.53,-0.02 3.05,-0.03 2.69,-0.05 2.41,-0.06 2.18,-9.71 1.99,-0.29 1.83,-0.25 1.69,-0.23 1.58,-0.21 1.48,-0.19 1.38,-0.18 1.31,-0.15 1.24,-0.14 1.17,-0.13 1.12,-0.12 1.06,-0.1 1.02,-0.1 0.97,-0.1 0.93,-0.09 0.9,-0.08 0.86,0.27 0.83,0.16 0.81,-0.04 0.77,-0.02 0.75,-0.02 0.73,-0.05 0.7,-0.04 0.68,-0.03 0.66,-0.03 0.65,-0.02 0.63,-0.01 0.6,-0.02 0.6,-0.01 h 0.58 l 0.56,-0.01 0.55,-0.01 0.54,-0.01 0.53,-0.01 0.51,-0.01 0.5,-0.01 0.49,-0.02 0.49,-0.01 0.47,-0.01 0.46,-0.01 0.45,-0.01 0.45,-0.01 0.43,-0.01 0.43,-0.01 0.42,-0.01 0.41,-0.01 0.41,-0.01 0.39,-0.01 h 0.39 l 0.39,-0.01 0.38,-0.01 h 0.37 l 0.36,-0.01 0.36,-0.01 h 0.36 l 0.35,-0.01 h 0.34 0.34 l 0.33,-0.01 h 0.33 l 0.33,-0.01 h 0.32 0.31 0.31 0.31 l 0.3,0.01 0.3,0.01 0.3,-0.01 0.29,-0.04 h 0.29 0.28 0.28 0.28 0.27 0.27 0.27 0.26 0.26 0.26 0.26 0.25 0.25 0.25 0.24 0.24 0.24 0.24 0.24 0.23 0.23 0.23 0.22 0.22 0.22 0.22 0.22 0.21 0.22 0.21 0.21 0.2 0.21 0.2 0.2 0.2 0.2 0.2 0.19 0.19 0.2"
       style="fill:none;stroke:#8f0505;stroke-width:1.13;stroke-linecap:round;stroke-linejoin:round;stroke-miterlimit:10;stroke-dasharray:3.38, 5.63;stroke-dashoffset:0;stroke-opacity:1"
       id="path104"
       inkscape:connector-curvature="0" /></g></g><g
   id="g106"><path
     d="M 146.61,168.71 H 241.9 V 276.6 H 146.61 V 168.71"
     style="fill:none;stroke:#000000;stroke-width:0.75;stroke-linecap:round;stroke-linejoin:round;stroke-miterlimit:10;stroke-dasharray:none;stroke-opacity:1"
     id="path108"
     inkscape:connector-curvature="0" /></g><g
   id="g110"><g
     id="g112"
     clip-path="url(#clipPath116)"><text
   transform="matrix(1,0,0,-1,175.25,132.6)"
   style="font-variant:normal;font-weight:normal;font-size:6px;font-family:Helvetica;-inkscape-font-specification:Helvetica;writing-mode:lr-tb;fill:#000000;fill-opacity:1;fill-rule:nonzero;stroke:none"
   id="text120"><tspan
     x="0 3 6.336 9.6719999 11.34 12.672 16.007999 19.344 21.341999 23.01 26.346001 29.681999 33.018002 34.686001"
     y="0"
     sodipodi:role="line"
     id="tspan118">seafloor depth</tspan></text>

<text
   transform="matrix(0,1,1,0,114.88,202.04)"
   style="font-variant:normal;font-weight:normal;font-size:6px;font-family:Helvetica;-inkscape-font-specification:Helvetica;writing-mode:lr-tb;fill:#000000;fill-opacity:1;fill-rule:nonzero;stroke:none"
   id="text124"><tspan
     x="0 4.0019999 5.3340001 8.6700001 13.668 17.004 20.004 23.004 24.672001 28.007999 30.006001"
     y="0"
     sodipodi:role="line"
     id="tspan122">Biomass gr </tspan></text>

<text
   transform="matrix(0,1,1,0,114.88,233.71)"
   style="font-variant:normal;font-weight:normal;font-size:6px;font-family:Helvetica;-inkscape-font-specification:Helvetica;writing-mode:lr-tb;fill:#000000;fill-opacity:1;fill-rule:nonzero;stroke:none"
   id="text128"><tspan
     x="0"
     y="0"
     id="tspan126">m</tspan></text>

<text
   transform="matrix(0,1,1,0,111.9,238.71)"
   style="font-variant:normal;font-weight:normal;font-size:4px;font-family:Helvetica;-inkscape-font-specification:Helvetica;writing-mode:lr-tb;fill:#000000;fill-opacity:1;fill-rule:nonzero;stroke:none"
   id="text132"><tspan
     x="0 2.336"
     y="0"
     sodipodi:role="line"
     id="tspan130">−2</tspan></text>

</g></g><g
   id="g134"><g
     id="g136"
     clip-path="url(#clipPath140)"><path
       d="m 147.08,172.53 9.27,0.26 6.58,1.29 5.1,1.54 4.17,1.65 3.53,2.9 3.05,2.52 2.69,2.1 2.41,1.7 2.18,-1.29 1.99,0.66 1.83,0.5 1.69,0.36 1.58,0.27 1.48,0.18 1.38,0.13 1.31,0.08 1.24,0.05 1.17,0.03 1.12,0.01 1.06,0.01 1.02,-0.01 h 0.97 l 0.93,-0.01 0.9,-0.01 0.86,0.38 0.83,0.12 0.81,-0.09 0.77,-0.16 0.75,-0.14 0.73,-0.13 0.7,-0.11 0.68,-0.1 0.66,-0.09 0.65,-0.07 0.63,-0.06 0.6,-0.05 0.6,-0.03 0.58,-0.02 0.56,-0.02 0.55,-0.01 0.54,-0.01 0.53,-0.01 h 0.51 0.5 l 0.49,-0.01 h 0.49 0.47 0.46 l 0.45,0.01 h 0.45 0.43 0.43 0.42 0.41 l 0.41,0.01 h 0.39 0.39 0.39 0.38 l 0.37,0.01 h 0.36 0.36 0.36 0.35 l 0.34,0.01 h 0.34 0.33 0.33 0.33 0.32 l 0.31,0.01 h 0.31 0.31 l 0.3,0.01 0.3,0.03 0.3,0.01 0.29,-0.04 h 0.29 0.28 0.28 0.28 0.27 0.27 0.27 0.26 0.26 0.26 0.26 0.25 0.25 0.25 0.24 0.24 0.24 0.24 0.24 0.23 0.23 0.23 0.22 0.22 0.22 0.22 0.22 0.21 0.22 0.21 0.21 0.2 0.21 0.2 0.2 0.2 0.2 0.2 0.19 0.19 0.2"
       style="fill:none;stroke:#8f0505;stroke-width:1.13;stroke-linecap:round;stroke-linejoin:round;stroke-miterlimit:10;stroke-dasharray:none;stroke-opacity:1"
       id="path142"
       inkscape:connector-curvature="0" /><path
       d="m 147.08,168.71 h 9.27 6.58 5.1 4.17 3.53 3.05 2.69 2.41 l 2.18,13.99 1.99,0.4 1.83,0.32 1.69,0.27 1.58,0.25 1.48,0.21 1.38,0.2 1.31,0.18 1.24,0.17 1.17,0.15 1.12,0.15 1.06,0.13 1.02,0.13 0.97,0.13 0.93,0.11 0.9,0.11 0.86,-0.34 0.83,-0.32 0.81,0.02 H 209 l 0.75,-0.01 0.73,0.04 0.7,0.05 0.68,0.05 0.66,0.04 0.65,0.04 0.63,0.03 0.6,0.02 0.6,0.01 0.58,0.02 0.56,0.01 0.55,0.01 0.54,0.01 0.53,0.01 h 0.51 l 0.5,0.01 0.49,0.01 0.49,0.01 0.47,0.01 0.46,0.01 h 0.45 l 0.45,0.01 0.43,0.01 h 0.43 l 0.42,0.01 h 0.41 0.41 l 0.39,0.01 h 0.39 l 0.39,0.01 h 0.38 0.37 0.36 l 0.36,0.01 h 0.36 0.35 0.34 0.34 0.33 0.33 l 0.33,0.01 h 0.32 0.31 0.31 l 0.31,-0.01 0.3,-0.02 0.3,-0.03 h 0.3 l 0.29,0.07 h 0.29 0.28 0.28 0.28 0.27 0.27 0.27 0.26 0.26 0.26 0.26 0.25 0.25 0.25 0.24 0.24 0.24 0.24 0.24 0.23 0.23 0.23 0.22 0.22 0.22 0.22 0.22 0.21 0.22 0.21 0.21 0.2 0.21 0.2 0.2 0.2 0.2 0.2 0.19 0.19 0.2"
       style="fill:none;stroke:#5c88c5;stroke-width:1.13;stroke-linecap:round;stroke-linejoin:round;stroke-miterlimit:10;stroke-dasharray:3.38, 5.63;stroke-dashoffset:0;stroke-opacity:1"
       id="path144"
       inkscape:connector-curvature="0" /><path
       d="m 147.08,168.71 h 9.27 6.58 5.1 4.17 3.53 3.05 2.69 2.41 l 2.18,0.02 1.99,-0.01 1.83,-0.01 h 1.69 1.58 1.48 1.38 1.31 1.24 1.17 1.12 l 1.06,0.01 h 1.02 l 0.97,0.01 0.93,0.01 0.9,0.01 0.86,-0.01 0.83,0.02 0.81,0.21 0.77,0.54 0.75,0.58 0.73,0.45 0.7,0.37 0.68,0.29 0.66,0.24 0.65,0.19 0.63,0.16 0.6,0.12 0.6,0.11 0.58,0.1 0.56,0.09 0.55,0.09 0.54,0.09 0.53,0.09 0.51,0.08 0.5,0.08 0.49,0.09 0.49,0.08 0.47,0.08 0.46,0.07 0.45,0.08 0.45,0.07 0.43,0.07 0.43,0.07 0.42,0.07 0.41,0.06 0.41,0.06 0.39,0.06 0.39,0.06 0.39,0.05 0.38,0.06 0.37,0.05 0.36,0.04 0.36,0.05 0.36,0.04 0.35,0.04 0.34,0.04 0.34,0.03 0.33,0.04 0.33,0.03 0.33,0.03 0.32,0.02 0.31,0.03 0.31,0.02 0.31,0.02 0.3,0.01 0.3,0.01 0.3,0.06 0.29,0.12 h 0.29 0.28 0.28 0.28 0.27 0.27 0.27 0.26 0.26 0.26 0.26 0.25 0.25 0.25 0.24 0.24 0.24 0.24 0.24 0.23 0.23 0.23 0.22 0.22 0.22 0.22 0.22 0.21 0.22 0.21 0.21 0.2 0.21 0.2 0.2 0.2 0.2 0.2 0.19 0.19 0.2"
       style="fill:none;stroke:#5c88c5;stroke-width:1.13;stroke-linecap:round;stroke-linejoin:round;stroke-miterlimit:10;stroke-dasharray:none;stroke-opacity:1"
       id="path146"
       inkscape:connector-curvature="0" /><path
       d="m 147.08,212.21 9.27,-2.25 6.58,-1.74 5.1,-1.34 4.17,-1.19 3.53,-4.85 3.05,-3.92 2.69,-3.18 2.41,-2.57 2.18,-5.34 1.99,-1.7 1.83,-1.37 1.69,-1.1 1.58,-0.9 1.48,-0.73 1.38,-0.62 1.31,-0.53 1.24,-0.45 1.17,-0.4 1.12,-0.36 1.06,-0.33 1.02,-0.3 0.97,-0.28 0.93,-0.26 0.9,-0.24 0.86,-0.12 0.83,-0.27 0.81,-0.27 0.77,-0.4 0.75,-0.42 0.73,-0.34 0.7,-0.27 0.68,-0.22 0.66,-0.18 0.65,-0.16 0.63,-0.14 0.6,-0.14 0.6,-0.13 0.58,-0.14 0.56,-0.14 0.55,-0.13 0.54,-0.14 0.53,-0.14 0.51,-0.14 0.5,-0.14 0.49,-0.13 0.49,-0.14 0.47,-0.13 0.46,-0.12 0.45,-0.12 0.45,-0.12 0.43,-0.11 0.43,-0.12 0.42,-0.1 0.41,-0.11 0.41,-0.1 0.39,-0.09 0.39,-0.1 0.39,-0.09 0.38,-0.09 0.37,-0.08 0.36,-0.09 0.36,-0.08 0.36,-0.07 0.35,-0.07 0.34,-0.08 0.34,-0.06 0.33,-0.07 0.33,-0.06 0.33,-0.06 0.32,-0.06 0.31,-0.06 0.31,-0.05 0.31,-0.06 0.3,-0.07 0.3,-0.12 0.3,-0.35 0.29,-0.36 h 0.29 0.28 0.28 0.28 0.27 0.27 0.27 0.26 0.26 0.26 0.26 0.25 0.25 0.25 0.24 0.24 0.24 0.24 0.24 0.23 0.23 0.23 0.22 0.22 0.22 0.22 0.22 0.21 0.22 0.21 0.21 0.2 0.21 0.2 0.2 0.2 0.2 0.2 0.19 0.19 0.2"
       style="fill:none;stroke:#000000;stroke-width:1.13;stroke-linecap:round;stroke-linejoin:round;stroke-miterlimit:10;stroke-dasharray:none;stroke-opacity:1"
       id="path148"
       inkscape:connector-curvature="0" /></g></g><g
   id="g150"><path
     d="M 147.08,168.71 H 240.7"
     style="fill:none;stroke:#000000;stroke-width:0.75;stroke-linecap:round;stroke-linejoin:round;stroke-miterlimit:10;stroke-dasharray:none;stroke-opacity:1"
     id="path152"
     inkscape:connector-curvature="0" /><path
     d="m 147.08,168.71 v -4.75"
     style="fill:none;stroke:#000000;stroke-width:0.75;stroke-linecap:round;stroke-linejoin:round;stroke-miterlimit:10;stroke-dasharray:none;stroke-opacity:1"
     id="path154"
     inkscape:connector-curvature="0" /><path
     d="m 183.88,168.71 v -4.75"
     style="fill:none;stroke:#000000;stroke-width:0.75;stroke-linecap:round;stroke-linejoin:round;stroke-miterlimit:10;stroke-dasharray:none;stroke-opacity:1"
     id="path156"
     inkscape:connector-curvature="0" /><path
     d="m 231.43,168.71 v -4.75"
     style="fill:none;stroke:#000000;stroke-width:0.75;stroke-linecap:round;stroke-linejoin:round;stroke-miterlimit:10;stroke-dasharray:none;stroke-opacity:1"
     id="path158"
     inkscape:connector-curvature="0" /></g><g
   id="g162"><g
     id="g164"
     clip-path="url(#clipPath168)"><path
       d="m 253.78,197.29 9.27,0.86 6.58,0.81 5.1,0.94 4.17,0.92 3.52,0.6 3.05,0.41 2.7,0.25 2.41,0.11 2.18,-15.86 1.98,-0.88 1.83,-0.81 1.7,-0.64 1.58,-0.47 1.47,-0.36 1.39,-0.26 1.31,-0.18 1.23,-0.14 1.17,-0.11 1.12,-0.07 1.06,-0.06 1.02,-0.05 0.97,-0.04 0.94,-0.03 0.89,-0.04 0.87,0.6 0.83,0.42 0.8,0.07 0.77,-0.24 0.75,-0.33 0.73,-0.34 0.7,-0.29 0.69,-0.24 0.66,-0.19 0.64,-0.14 0.63,-0.09 0.61,-0.07 0.59,-0.05 0.58,-0.03 0.57,-0.03 0.55,-0.03 0.54,-0.02 0.52,-0.03 0.52,-0.04 0.5,-0.03 0.49,-0.03 0.48,-0.03 0.47,-0.04 0.46,-0.03 0.46,-0.03 0.44,-0.03 0.44,-0.03 0.42,-0.03 0.42,-0.03 0.42,-0.02 0.4,-0.03 0.4,-0.03 0.39,-0.02 0.38,-0.02 0.38,-0.03 0.37,-0.02 0.37,-0.02 0.36,-0.02 0.35,-0.02 0.35,-0.02 0.35,-0.01 0.33,-0.02 0.34,-0.02 0.33,-0.02 0.32,-0.01 0.32,-0.02 0.32,-0.01 0.31,-0.02 0.3,0.01 0.31,0.04 0.3,0.01 h 0.29 0.29 l 0.29,-0.02 0.28,-0.12 0.28,-0.25 h 0.28 0.28 0.27 0.26 0.27 0.26 0.26 0.25 0.26 0.25 0.24 0.25 0.24 0.24 0.24 0.23 0.23 0.23 0.23 0.22 0.23 0.22 0.22 0.21 0.22 0.21 0.21 0.21 0.21 0.2 0.21 0.2 0.2 0.2 0.19 0.2 0.19 0.19"
       style="fill:none;stroke:#8f0505;stroke-width:1.13;stroke-linecap:round;stroke-linejoin:round;stroke-miterlimit:10;stroke-dasharray:3.38, 5.63;stroke-dashoffset:0;stroke-opacity:1"
       id="path170"
       inkscape:connector-curvature="0" /></g></g><g
   id="g172"><path
     d="M 253.31,168.71 H 348.6 V 276.6 H 253.31 V 168.71"
     style="fill:none;stroke:#000000;stroke-width:0.75;stroke-linecap:round;stroke-linejoin:round;stroke-miterlimit:10;stroke-dasharray:none;stroke-opacity:1"
     id="path174"
     inkscape:connector-curvature="0" /></g><g
   id="g176"><g
     id="g178"
     clip-path="url(#clipPath182)"><text
   transform="matrix(1,0,0,-1,276.61,132.6)"
   style="font-variant:normal;font-weight:normal;font-size:6px;font-family:Helvetica;-inkscape-font-specification:Helvetica;writing-mode:lr-tb;fill:#000000;fill-opacity:1;fill-rule:nonzero;stroke:none"
   id="text186"><tspan
     x="0 3 6.336 9.6719999 11.34 12.672 16.007999 19.344 21.341999 23.01 26.346001 29.681999 33.018002 34.686001 38.021999 39.689999 41.688 46.686001"
     y="0"
     sodipodi:role="line"
     id="tspan184">seafloor depth (m)</tspan></text>

<text
   transform="matrix(0,1,1,0,221.57,202.04)"
   style="font-variant:normal;font-weight:normal;font-size:6px;font-family:Helvetica;-inkscape-font-specification:Helvetica;writing-mode:lr-tb;fill:#000000;fill-opacity:1;fill-rule:nonzero;stroke:none"
   id="text190"><tspan
     x="0 4.0019999 5.3340001 8.6700001 13.668 17.004 20.004 23.004 24.672001 28.007999 30.006001"
     y="0"
     sodipodi:role="line"
     id="tspan188">Biomass gr </tspan></text>

<text
   transform="matrix(0,1,1,0,221.57,233.71)"
   style="font-variant:normal;font-weight:normal;font-size:6px;font-family:Helvetica;-inkscape-font-specification:Helvetica;writing-mode:lr-tb;fill:#000000;fill-opacity:1;fill-rule:nonzero;stroke:none"
   id="text194"><tspan
     x="0"
     y="0"
     id="tspan192">m</tspan></text>

<text
   transform="matrix(0,1,1,0,218.59,238.71)"
   style="font-variant:normal;font-weight:normal;font-size:4px;font-family:Helvetica;-inkscape-font-specification:Helvetica;writing-mode:lr-tb;fill:#000000;fill-opacity:1;fill-rule:nonzero;stroke:none"
   id="text198"><tspan
     x="0 2.336"
     y="0"
     sodipodi:role="line"
     id="tspan196">−2</tspan></text>

</g></g><g
   id="g200"><g
     id="g202"
     clip-path="url(#clipPath206)"><path
       d="m 253.78,180.24 9.27,1.25 6.58,2.31 5.1,2.85 4.17,3.16 3.52,4.99 3.05,4.52 2.7,3.9 2.41,3.24 2.18,1.17 1.98,1.93 1.83,1.5 1.7,1.04 1.58,0.71 1.47,0.47 1.39,0.31 1.31,0.19 1.23,0.11 1.17,0.05 1.12,0.01 1.06,-0.01 1.02,-0.03 0.97,-0.05 0.94,-0.05 0.89,-0.05 0.87,0.87 0.83,0.1 0.8,-0.35 0.77,-0.51 0.75,-0.47 0.73,-0.44 0.7,-0.4 0.69,-0.35 0.66,-0.3 0.64,-0.25 0.63,-0.19 0.61,-0.14 0.59,-0.11 0.58,-0.08 0.57,-0.05 0.55,-0.04 0.54,-0.03 0.52,-0.01 0.52,-0.01 0.5,-0.01 h 0.49 0.48 0.47 0.46 l 0.46,0.01 h 0.44 l 0.44,0.01 0.42,0.01 h 0.42 l 0.42,0.01 0.4,0.01 0.4,0.01 h 0.39 l 0.38,0.01 0.38,0.01 0.37,0.01 0.37,0.01 0.36,0.01 0.35,0.01 h 0.35 l 0.35,0.01 0.33,0.01 0.34,0.01 0.33,0.01 0.32,0.01 0.32,0.01 0.32,0.01 0.31,0.01 0.3,-0.01 0.31,-0.03 0.3,0.04 0.29,0.09 0.29,0.13 0.29,0.14 0.28,0.06 0.28,-0.11 0.28,-0.01 h 0.28 0.27 0.26 0.27 0.26 0.26 0.25 0.26 0.25 0.24 0.25 0.24 0.24 0.24 0.23 0.23 0.23 0.23 0.22 0.23 0.22 0.22 0.21 0.22 0.21 0.21 0.21 0.21 0.2 0.21 0.2 0.2 0.2 0.19 0.2 0.19 0.19"
       style="fill:none;stroke:#8f0505;stroke-width:1.13;stroke-linecap:round;stroke-linejoin:round;stroke-miterlimit:10;stroke-dasharray:none;stroke-opacity:1"
       id="path208"
       inkscape:connector-curvature="0" /><path
       d="m 253.78,168.71 h 9.27 6.58 5.1 4.17 3.52 3.05 2.7 2.41 l 2.18,19.96 1.98,1.21 1.83,1.12 1.7,0.83 1.58,0.58 1.47,0.41 1.39,0.27 1.31,0.17 1.23,0.12 1.17,0.07 1.12,0.05 1.06,0.03 1.02,0.02 0.97,0.02 0.94,0.01 0.89,0.02 0.87,-0.54 0.83,-0.65 0.8,-0.13 0.77,0.29 0.75,0.43 0.73,0.46 0.7,0.41 0.69,0.35 0.66,0.29 0.64,0.22 0.63,0.16 0.61,0.12 0.59,0.07 0.58,0.06 0.57,0.04 0.55,0.03 0.54,0.03 0.52,0.03 0.52,0.02 0.5,0.03 0.49,0.02 0.48,0.03 0.47,0.02 0.46,0.03 0.46,0.02 0.44,0.02 0.44,0.02 0.42,0.01 0.42,0.02 0.42,0.02 0.4,0.01 0.4,0.02 0.39,0.01 0.38,0.01 0.38,0.01 0.37,0.01 0.37,0.01 0.36,0.01 0.35,0.01 0.35,0.01 0.35,0.01 h 0.33 l 0.34,0.01 0.33,0.01 h 0.32 l 0.32,0.01 h 0.32 l 0.31,0.01 0.3,-0.02 0.31,-0.04 0.3,-0.05 0.29,-0.05 0.29,-0.08 0.29,-0.07 0.28,0.07 0.28,0.27 h 0.28 0.28 0.27 0.26 0.27 0.26 0.26 0.25 0.26 0.25 0.24 0.25 0.24 0.24 0.24 0.23 0.23 0.23 0.23 0.22 0.23 0.22 0.22 0.21 0.22 0.21 0.21 0.21 0.21 0.2 0.21 0.2 0.2 0.2 0.19 0.2 0.19 0.19"
       style="fill:none;stroke:#5c88c5;stroke-width:1.13;stroke-linecap:round;stroke-linejoin:round;stroke-miterlimit:10;stroke-dasharray:3.38, 5.63;stroke-dashoffset:0;stroke-opacity:1"
       id="path210"
       inkscape:connector-curvature="0" /><path
       d="m 253.78,168.71 h 9.27 6.58 5.1 4.17 3.52 3.05 2.7 2.41 l 2.18,9.24 1.98,-1.3 1.83,-1.4 1.7,-0.89 1.58,-0.47 1.47,-0.19 1.39,0.03 1.31,0.15 1.23,0.25 1.17,0.29 1.12,0.31 1.06,0.33 1.02,0.32 0.97,0.32 0.94,0.3 0.89,0.3 0.87,-1.08 0.83,-0.19 0.8,0.51 0.77,0.63 0.75,0.57 0.73,0.52 0.7,0.46 0.69,0.4 0.66,0.33 0.64,0.27 0.63,0.21 0.61,0.17 0.59,0.14 0.58,0.12 0.57,0.12 0.55,0.12 0.54,0.12 0.52,0.13 0.52,0.13 0.5,0.13 0.49,0.13 0.48,0.14 0.47,0.13 0.46,0.12 0.46,0.13 0.44,0.12 0.44,0.12 0.42,0.12 0.42,0.12 0.42,0.11 0.4,0.11 0.4,0.11 0.39,0.11 0.38,0.1 0.38,0.1 0.37,0.1 0.37,0.1 0.36,0.09 0.35,0.09 0.35,0.09 0.35,0.09 0.33,0.09 0.34,0.08 0.33,0.09 0.32,0.08 0.32,0.08 0.32,0.07 0.31,0.08 0.3,0.1 0.31,0.13 0.3,0.14 0.29,0.15 0.29,0.17 0.29,0.24 0.28,0.42 0.28,0.64 0.28,0.02 h 0.28 0.27 0.26 0.27 0.26 0.26 0.25 0.26 0.25 0.24 0.25 0.24 0.24 0.24 0.23 0.23 0.23 0.23 0.22 0.23 0.22 0.22 0.21 0.22 0.21 0.21 0.21 0.21 0.2 0.21 0.2 0.2 0.2 0.19 0.2 0.19 0.19"
       style="fill:none;stroke:#5c88c5;stroke-width:1.13;stroke-linecap:round;stroke-linejoin:round;stroke-miterlimit:10;stroke-dasharray:none;stroke-opacity:1"
       id="path212"
       inkscape:connector-curvature="0" /><path
       d="m 253.78,241.54 9.27,-2.33 6.58,-1.47 5.1,-1.14 4.17,-1.34 3.52,-7.42 3.05,-6.35 2.7,-5.37 2.41,-4.48 2.18,-17.21 1.98,-2.42 1.83,-1.6 1.7,-1.37 1.58,-1.2 1.47,-1.1 1.39,-1 1.31,-0.91 1.23,-0.84 1.17,-0.77 1.12,-0.71 1.06,-0.65 1.02,-0.6 0.97,-0.56 0.94,-0.52 0.89,-0.48 0.87,0.51 0.83,-0.16 0.8,-0.25 0.77,-0.21 0.75,-0.18 0.73,-0.16 0.7,-0.15 0.69,-0.14 0.66,-0.15 0.64,-0.14 0.63,-0.14 0.61,-0.14 0.59,-0.16 0.58,-0.16 0.57,-0.17 0.55,-0.19 0.54,-0.19 0.52,-0.21 0.52,-0.2 0.5,-0.21 0.49,-0.2 0.48,-0.21 0.47,-0.2 0.46,-0.19 0.46,-0.2 0.44,-0.18 0.44,-0.19 0.42,-0.17 0.42,-0.18 0.42,-0.16 0.4,-0.17 0.4,-0.16 0.39,-0.15 0.38,-0.15 0.38,-0.15 0.37,-0.15 0.37,-0.14 0.36,-0.13 0.35,-0.14 0.35,-0.13 0.35,-0.13 0.33,-0.12 0.34,-0.12 0.33,-0.12 0.32,-0.12 0.32,-0.11 0.32,-0.11 0.31,-0.11 0.3,-0.12 0.31,-0.15 0.3,-0.19 0.29,-0.25 0.29,-0.32 0.29,-0.5 0.28,-0.89 0.28,-1.43 0.28,-0.05 h 0.28 0.27 0.26 0.27 0.26 0.26 0.25 0.26 0.25 0.24 0.25 0.24 0.24 0.24 0.23 0.23 0.23 0.23 0.22 0.23 0.22 0.22 0.21 0.22 0.21 0.21 0.21 0.21 0.2 0.21 0.2 0.2 0.2 0.19 0.2 0.19 0.19"
       style="fill:none;stroke:#000000;stroke-width:1.13;stroke-linecap:round;stroke-linejoin:round;stroke-miterlimit:10;stroke-dasharray:none;stroke-opacity:1"
       id="path214"
       inkscape:connector-curvature="0" /></g></g><g
   id="g216"><path
     d="m 253.78,168.71 h 93.61"
     style="fill:none;stroke:#000000;stroke-width:0.75;stroke-linecap:round;stroke-linejoin:round;stroke-miterlimit:10;stroke-dasharray:none;stroke-opacity:1"
     id="path218"
     inkscape:connector-curvature="0" /><path
     d="m 253.78,168.71 v -4.75"
     style="fill:none;stroke:#000000;stroke-width:0.75;stroke-linecap:round;stroke-linejoin:round;stroke-miterlimit:10;stroke-dasharray:none;stroke-opacity:1"
     id="path220"
     inkscape:connector-curvature="0" /><path
     d="m 290.58,168.71 v -4.75"
     style="fill:none;stroke:#000000;stroke-width:0.75;stroke-linecap:round;stroke-linejoin:round;stroke-miterlimit:10;stroke-dasharray:none;stroke-opacity:1"
     id="path222"
     inkscape:connector-curvature="0" /><path
     d="m 338.12,168.71 v -4.75"
     style="fill:none;stroke:#000000;stroke-width:0.75;stroke-linecap:round;stroke-linejoin:round;stroke-miterlimit:10;stroke-dasharray:none;stroke-opacity:1"
     id="path224"
     inkscape:connector-curvature="0" /></g><g
   id="g228"><g
     id="g230"
     clip-path="url(#clipPath234)"><path
       d="m 40.39,51.59 9.27,0.08 6.58,0.08 5.1,0.1 4.17,0.1 3.52,0.22 3.06,0.2 2.69,0.21 2.41,0.33 2.18,-1.54 1.99,-0.14 1.83,-0.26 1.69,-0.18 h 1.58 l 1.47,0.01 h 1.39 1.31 1.23 1.18 1.11 1.06 1.02 0.97 0.94 0.89 l 0.87,-0.06 0.83,0.08 0.8,0.02 h 0.78 l 0.75,-0.02 0.72,-0.01 0.7,-0.01 h 0.69 0.66 0.64 0.63 0.61 0.59 0.58 0.57 0.55 0.54 0.52 0.52 0.5 0.49 0.48 0.47 0.47 0.45 0.44 0.44 0.42 0.42 0.42 0.4 0.4 0.39 0.38 0.38 0.37 0.37 0.36 0.35 0.35 0.35 0.34 0.33 0.33 0.32 0.32 0.32 0.31 0.31 0.3 0.3 0.29 0.29 0.29 0.29 0.28 0.27 0.28 0.27 0.26 0.27 0.26 0.26 0.25 0.26 0.25 0.24 0.25 0.24 0.24 0.24 0.23 0.23 0.23 0.23 0.23 0.22 0.22 0.22 0.22 0.21 0.21 0.21 0.21 0.21 0.2 0.21 0.2 0.2 0.2 0.19 0.2 0.19 0.19"
       style="fill:none;stroke:#8f0505;stroke-width:1.13;stroke-linecap:round;stroke-linejoin:round;stroke-miterlimit:10;stroke-dasharray:3.38, 5.63;stroke-dashoffset:0;stroke-opacity:1"
       id="path236"
       inkscape:connector-curvature="0" /></g></g><g
   id="g238"><path
     d="m 39.92,49.42 h 95.29 V 157.31 H 39.92 V 49.42"
     style="fill:none;stroke:#000000;stroke-width:0.75;stroke-linecap:round;stroke-linejoin:round;stroke-miterlimit:10;stroke-dasharray:none;stroke-opacity:1"
     id="path240"
     inkscape:connector-curvature="0" /></g><g
   id="g242"><g
     id="g244"
     clip-path="url(#clipPath248)"><text
   transform="matrix(1,0,0,-1,63.22,13.31)"
   style="font-variant:normal;font-weight:normal;font-size:6px;font-family:Helvetica;-inkscape-font-specification:Helvetica;writing-mode:lr-tb;fill:#000000;fill-opacity:1;fill-rule:nonzero;stroke:none"
   id="text252"><tspan
     x="0 3 6.336 9.6719999 11.34 12.672 16.007999 19.344 21.341999 23.01 26.346001 29.681999 33.018002 34.686001 38.021999 39.689999 41.688 46.686001"
     y="0"
     sodipodi:role="line"
     id="tspan250">seafloor depth (m)</tspan></text>

<text
   transform="matrix(0,1,1,0,8.18,82.75)"
   style="font-variant:normal;font-weight:normal;font-size:6px;font-family:Helvetica;-inkscape-font-specification:Helvetica;writing-mode:lr-tb;fill:#000000;fill-opacity:1;fill-rule:nonzero;stroke:none"
   id="text256"><tspan
     x="0 4.0019999 5.3340001 8.6700001 13.668 17.004 20.004 23.004 24.672001 28.007999 30.006001"
     y="0"
     sodipodi:role="line"
     id="tspan254">Biomass gr </tspan></text>

<text
   transform="matrix(0,1,1,0,8.18,114.42)"
   style="font-variant:normal;font-weight:normal;font-size:6px;font-family:Helvetica;-inkscape-font-specification:Helvetica;writing-mode:lr-tb;fill:#000000;fill-opacity:1;fill-rule:nonzero;stroke:none"
   id="text260"><tspan
     x="0"
     y="0"
     id="tspan258">m</tspan></text>

<text
   transform="matrix(0,1,1,0,5.2,119.42)"
   style="font-variant:normal;font-weight:normal;font-size:4px;font-family:Helvetica;-inkscape-font-specification:Helvetica;writing-mode:lr-tb;fill:#000000;fill-opacity:1;fill-rule:nonzero;stroke:none"
   id="text264"><tspan
     x="0 2.336"
     y="0"
     sodipodi:role="line"
     id="tspan262">−2</tspan></text>

</g></g><g
   id="g266"><g
     id="g268"
     clip-path="url(#clipPath272)"><path
       d="m 40.39,49.42 h 9.27 6.58 5.1 4.17 3.52 3.06 2.69 2.41 l 2.18,1.98 1.99,0.32 1.83,0.55 1.69,0.4 h 1.58 1.47 1.39 1.31 1.23 1.18 1.11 1.06 1.02 0.97 0.94 0.89 l 0.87,0.08 0.83,-0.1 0.8,-0.03 h 0.78 l 0.75,0.02 0.72,0.01 0.7,0.01 h 0.69 l 0.66,0.01 h 0.64 0.63 0.61 0.59 0.58 0.57 0.55 0.54 0.52 0.52 0.5 0.49 0.48 0.47 0.47 0.45 0.44 0.44 0.42 0.42 0.42 0.4 0.4 0.39 0.38 0.38 0.37 0.37 0.36 0.35 0.35 0.35 0.34 0.33 0.33 0.32 0.32 0.32 0.31 0.31 0.3 0.3 0.29 0.29 0.29 0.29 0.28 0.27 0.28 0.27 0.26 0.27 0.26 0.26 0.25 0.26 0.25 0.24 0.25 0.24 0.24 0.24 0.23 0.23 0.23 0.23 0.23 0.22 0.22 0.22 0.22 0.21 0.21 0.21 0.21 0.21 0.2 0.21 0.2 0.2 0.2 0.19 0.2 0.19 0.19"
       style="fill:none;stroke:#5c88c5;stroke-width:1.13;stroke-linecap:round;stroke-linejoin:round;stroke-miterlimit:10;stroke-dasharray:3.38, 5.63;stroke-dashoffset:0;stroke-opacity:1"
       id="path274"
       inkscape:connector-curvature="0" /><path
       d="m 40.39,63.08 9.27,-1.65 6.58,-1 5.1,-0.66 4.17,-0.5 3.52,-2.11 3.06,-1.68 2.69,-1.45 2.41,-1.56 2.18,0.44 1.99,-1.04 1.83,-1.41 1.69,-1.04 h 1.58 1.47 1.39 1.31 1.23 1.18 1.11 1.06 1.02 0.97 0.94 0.89 0.87 0.83 0.8 0.78 0.75 0.72 0.7 0.69 0.66 0.64 0.63 0.61 0.59 0.58 0.57 0.55 0.54 0.52 0.52 0.5 0.49 0.48 0.47 0.47 0.45 0.44 0.44 0.42 0.42 0.42 0.4 0.4 0.39 0.38 0.38 0.37 0.37 0.36 0.35 0.35 0.35 0.34 0.33 0.33 0.32 0.32 0.32 0.31 0.31 0.3 0.3 0.29 0.29 0.29 0.29 0.28 0.27 0.28 0.27 0.26 0.27 0.26 0.26 0.25 0.26 0.25 0.24 0.25 0.24 0.24 0.24 0.23 0.23 0.23 0.23 0.23 0.22 0.22 0.22 0.22 0.21 0.21 0.21 0.21 0.21 0.2 0.21 0.2 0.2 0.2 0.19 0.2 0.19 0.19"
       style="fill:none;stroke:#000000;stroke-width:1.13;stroke-linecap:round;stroke-linejoin:round;stroke-miterlimit:10;stroke-dasharray:none;stroke-opacity:1"
       id="path276"
       inkscape:connector-curvature="0" /></g></g><g
   id="g278"><path
   d="M 40.39,49.42 H 134"
   style="fill:none;stroke:#000000;stroke-width:0.75;stroke-linecap:round;stroke-linejoin:round;stroke-miterlimit:10;stroke-dasharray:none;stroke-opacity:1"
   id="path280"
   inkscape:connector-curvature="0" /><path
   d="M 40.39,49.42 V 44.67"
   style="fill:none;stroke:#000000;stroke-width:0.75;stroke-linecap:round;stroke-linejoin:round;stroke-miterlimit:10;stroke-dasharray:none;stroke-opacity:1"
   id="path282"
   inkscape:connector-curvature="0" /><path
   d="M 77.19,49.42 V 44.67"
   style="fill:none;stroke:#000000;stroke-width:0.75;stroke-linecap:round;stroke-linejoin:round;stroke-miterlimit:10;stroke-dasharray:none;stroke-opacity:1"
   id="path284"
   inkscape:connector-curvature="0" /><path
   d="M 124.73,49.42 V 44.67"
   style="fill:none;stroke:#000000;stroke-width:0.75;stroke-linecap:round;stroke-linejoin:round;stroke-miterlimit:10;stroke-dasharray:none;stroke-opacity:1"
   id="path286"
   inkscape:connector-curvature="0" /><text
   transform="matrix(1,0,0,-1,34.83,32.31)"
   style="font-variant:normal;font-weight:normal;font-size:10px;font-family:Helvetica;-inkscape-font-specification:Helvetica;writing-mode:lr-tb;fill:#000000;fill-opacity:1;fill-rule:nonzero;stroke:none"
   id="text292"><tspan
     x="0 5.5599999"
     y="0"
     sodipodi:role="line"
     id="tspan290">50</tspan></text>

<text
   transform="matrix(1,0,0,-1,68.85,32.31)"
   style="font-variant:normal;font-weight:normal;font-size:10px;font-family:Helvetica;-inkscape-font-specification:Helvetica;writing-mode:lr-tb;fill:#000000;fill-opacity:1;fill-rule:nonzero;stroke:none"
   id="text296"><tspan
     x="0 5.5599999 11.12"
     y="0"
     sodipodi:role="line"
     id="tspan294">250</tspan></text>

<text
   transform="matrix(1,0,0,-1,113.61,32.31)"
   style="font-variant:normal;font-weight:normal;font-size:10px;font-family:Helvetica;-inkscape-font-specification:Helvetica;writing-mode:lr-tb;fill:#000000;fill-opacity:1;fill-rule:nonzero;stroke:none"
   id="text300"><tspan
     x="0 5.5599999 11.12 16.68"
     y="0"
     sodipodi:role="line"
     id="tspan298">2000</tspan></text>

<path
   d="M 39.92,49.42 V 157.31"
   style="fill:none;stroke:#000000;stroke-width:0.75;stroke-linecap:round;stroke-linejoin:round;stroke-miterlimit:10;stroke-dasharray:none;stroke-opacity:1"
   id="path302"
   inkscape:connector-curvature="0" /><path
   d="M 39.92,49.42 H 35.16"
   style="fill:none;stroke:#000000;stroke-width:0.75;stroke-linecap:round;stroke-linejoin:round;stroke-miterlimit:10;stroke-dasharray:none;stroke-opacity:1"
   id="path304"
   inkscape:connector-curvature="0" /><path
   d="M 39.92,103.36 H 35.16"
   style="fill:none;stroke:#000000;stroke-width:0.75;stroke-linecap:round;stroke-linejoin:round;stroke-miterlimit:10;stroke-dasharray:none;stroke-opacity:1"
   id="path306"
   inkscape:connector-curvature="0" /><path
   d="M 39.92,157.31 H 35.16"
   style="fill:none;stroke:#000000;stroke-width:0.75;stroke-linecap:round;stroke-linejoin:round;stroke-miterlimit:10;stroke-dasharray:none;stroke-opacity:1"
   id="path308"
   inkscape:connector-curvature="0" /><text
   transform="matrix(1,0,0,-1,24.85,45.83)"
   style="font-variant:normal;font-weight:normal;font-size:10px;font-family:Helvetica;-inkscape-font-specification:Helvetica;writing-mode:lr-tb;fill:#000000;fill-opacity:1;fill-rule:nonzero;stroke:none"
   id="text312"><tspan
     x="0"
     y="0"
     id="tspan310">0</tspan></text>

<text
   transform="matrix(1,0,0,-1,19.29,99.77)"
   style="font-variant:normal;font-weight:normal;font-size:10px;font-family:Helvetica;-inkscape-font-specification:Helvetica;writing-mode:lr-tb;fill:#000000;fill-opacity:1;fill-rule:nonzero;stroke:none"
   id="text316"><tspan
     x="0 5.5599999"
     y="0"
     sodipodi:role="line"
     id="tspan314">15</tspan></text>

<text
   transform="matrix(1,0,0,-1,19.29,153.72)"
   style="font-variant:normal;font-weight:normal;font-size:10px;font-family:Helvetica;-inkscape-font-specification:Helvetica;writing-mode:lr-tb;fill:#000000;fill-opacity:1;fill-rule:nonzero;stroke:none"
   id="text320"><tspan
     x="0 5.5599999"
     y="0"
     sodipodi:role="line"
     id="tspan318">30</tspan></text>

</g><g
   id="g322"><g
     id="g324"
     clip-path="url(#clipPath328)"><path
       d="m 147.08,70.86 9.27,0.36 6.58,-0.02 5.1,-0.05 4.17,0.03 3.53,-0.19 3.05,-0.1 2.69,-0.04 2.41,-0.02 2.18,-10.62 1.99,-0.35 1.83,-0.29 1.69,-0.26 1.58,-0.22 1.48,-0.2 1.38,-0.18 1.31,-0.15 1.24,-0.15 1.17,-0.13 1.12,-0.12 1.06,-0.11 1.02,-0.1 0.97,-0.1 0.93,-0.09 0.9,-0.09 0.86,0.16 0.83,0.1 0.81,-0.14 0.77,-0.29 0.75,-0.25 0.73,-0.13 0.7,-0.03 h 0.68 l 0.66,-0.01 0.65,-0.01 0.63,-0.01 0.6,-0.01 0.6,-0.01 0.58,-0.01 0.56,-0.01 0.55,-0.01 0.54,-0.01 0.53,-0.01 0.51,-0.01 0.5,-0.01 0.49,-0.01 0.49,-0.01 0.47,-0.01 0.46,-0.01 0.45,-0.01 0.45,-0.01 0.43,-0.01 0.43,-0.01 0.42,-0.01 0.41,-0.01 h 0.41 l 0.39,-0.01 0.39,-0.01 0.39,-0.01 0.38,-0.01 h 0.37 l 0.36,-0.01 0.36,-0.01 h 0.36 l 0.35,-0.01 h 0.34 l 0.34,-0.01 0.33,-0.01 h 0.33 0.33 l 0.32,-0.01 h 0.31 l 0.31,-0.01 h 0.31 l 0.3,-0.01 0.3,-0.01 h 0.3 0.29 0.29 0.28 0.28 0.28 0.27 0.27 0.27 0.26 0.26 0.26 0.26 0.25 0.25 0.25 0.24 0.24 0.24 0.24 0.24 0.23 0.23 0.23 0.22 0.22 0.22 0.22 0.22 0.21 0.22 0.21 0.21 0.2 0.21 0.2 0.2 0.2 0.2 0.2 0.19 0.19 0.2"
       style="fill:none;stroke:#8f0505;stroke-width:1.13;stroke-linecap:round;stroke-linejoin:round;stroke-miterlimit:10;stroke-dasharray:3.38, 5.63;stroke-dashoffset:0;stroke-opacity:1"
       id="path330"
       inkscape:connector-curvature="0" /></g></g><g
   id="g332"><path
     d="M 146.61,49.42 H 241.9 V 157.31 H 146.61 V 49.42"
     style="fill:none;stroke:#000000;stroke-width:0.75;stroke-linecap:round;stroke-linejoin:round;stroke-miterlimit:10;stroke-dasharray:none;stroke-opacity:1"
     id="path334"
     inkscape:connector-curvature="0" /></g><g
   id="g336"><g
     id="g338"
     clip-path="url(#clipPath342)"><text
   transform="matrix(1,0,0,-1,175.25,13.31)"
   style="font-variant:normal;font-weight:normal;font-size:6px;font-family:Helvetica;-inkscape-font-specification:Helvetica;writing-mode:lr-tb;fill:#000000;fill-opacity:1;fill-rule:nonzero;stroke:none"
   id="text346"><tspan
     x="0 3 6.336 9.6719999 11.34 12.672 16.007999 19.344 21.341999 23.01 26.346001 29.681999 33.018002 34.686001"
     y="0"
     sodipodi:role="line"
     id="tspan344">seafloor depth</tspan></text>

<text
   transform="matrix(0,1,1,0,114.88,82.75)"
   style="font-variant:normal;font-weight:normal;font-size:6px;font-family:Helvetica;-inkscape-font-specification:Helvetica;writing-mode:lr-tb;fill:#000000;fill-opacity:1;fill-rule:nonzero;stroke:none"
   id="text350"><tspan
     x="0 4.0019999 5.3340001 8.6700001 13.668 17.004 20.004 23.004 24.672001 28.007999 30.006001"
     y="0"
     sodipodi:role="line"
     id="tspan348">Biomass gr </tspan></text>

<text
   transform="matrix(0,1,1,0,114.88,114.42)"
   style="font-variant:normal;font-weight:normal;font-size:6px;font-family:Helvetica;-inkscape-font-specification:Helvetica;writing-mode:lr-tb;fill:#000000;fill-opacity:1;fill-rule:nonzero;stroke:none"
   id="text354"><tspan
     x="0"
     y="0"
     id="tspan352">m</tspan></text>

<text
   transform="matrix(0,1,1,0,111.9,119.42)"
   style="font-variant:normal;font-weight:normal;font-size:4px;font-family:Helvetica;-inkscape-font-specification:Helvetica;writing-mode:lr-tb;fill:#000000;fill-opacity:1;fill-rule:nonzero;stroke:none"
   id="text358"><tspan
     x="0 2.336"
     y="0"
     sodipodi:role="line"
     id="tspan356">−2</tspan></text>

</g></g><g
   id="g360"><g
     id="g362"
     clip-path="url(#clipPath366)"><path
       d="m 147.08,50.99 9.27,0.18 6.58,1.65 5.1,2.16 4.17,2.23 3.53,3.57 3.05,2.94 2.69,2.31 2.41,1.76 2.18,-3.56 1.99,0.69 1.83,0.5 1.69,0.37 1.58,0.26 1.48,0.18 1.38,0.13 1.31,0.09 1.24,0.06 1.17,0.04 1.12,0.02 1.06,0.01 1.02,0.01 0.97,0.01 h 0.93 0.9 l 0.86,0.49 0.83,0.27 0.81,0.02 0.77,-0.09 0.75,-0.08 0.73,-0.07 0.7,-0.07 0.68,-0.07 0.66,-0.07 0.65,-0.06 0.63,-0.06 0.6,-0.05 0.6,-0.04 0.58,-0.04 0.56,-0.03 0.55,-0.02 0.54,-0.02 0.53,-0.03 0.51,-0.02 0.5,-0.01 0.49,-0.02 0.49,-0.02 0.47,-0.02 0.46,-0.02 0.45,-0.01 0.45,-0.02 0.43,-0.02 0.43,-0.01 0.42,-0.02 0.41,-0.01 0.41,-0.02 0.39,-0.01 0.39,-0.01 0.39,-0.02 0.38,-0.01 0.37,-0.01 0.36,-0.01 0.36,-0.01 0.36,-0.01 0.35,-0.01 0.34,-0.01 0.34,-0.01 0.33,-0.01 h 0.33 l 0.33,-0.01 0.32,-0.01 h 0.31 l 0.31,-0.01 h 0.31 l 0.3,-0.02 0.3,-0.03 h 0.3 0.29 0.29 0.28 0.28 0.28 0.27 0.27 0.27 0.26 0.26 0.26 0.26 0.25 0.25 0.25 0.24 0.24 0.24 0.24 0.24 0.23 0.23 0.23 0.22 0.22 0.22 0.22 0.22 0.21 0.22 0.21 0.21 0.2 0.21 0.2 0.2 0.2 0.2 0.2 0.19 0.19 0.2"
       style="fill:none;stroke:#8f0505;stroke-width:1.13;stroke-linecap:round;stroke-linejoin:round;stroke-miterlimit:10;stroke-dasharray:none;stroke-opacity:1"
       id="path368"
       inkscape:connector-curvature="0" /><path
       d="m 147.08,49.42 h 9.27 6.58 5.1 4.17 3.53 3.05 2.69 2.41 l 2.18,15.66 1.99,0.47 1.83,0.38 1.69,0.33 1.58,0.28 1.48,0.26 1.38,0.22 1.31,0.21 1.24,0.18 1.17,0.18 1.12,0.16 1.06,0.16 1.02,0.14 0.97,0.14 0.93,0.13 0.9,0.13 0.86,-0.29 0.83,-0.3 0.81,0.19 0.77,0.43 0.75,0.37 0.73,0.14 h 0.7 l 0.68,-0.02 h 0.66 l 0.65,0.01 0.63,0.02 0.6,0.02 0.6,0.02 0.58,0.01 0.56,0.02 0.55,0.01 0.54,0.02 0.53,0.01 0.51,0.02 0.5,0.01 0.49,0.02 0.49,0.02 0.47,0.01 0.46,0.02 0.45,0.01 0.45,0.02 0.43,0.01 0.43,0.02 0.42,0.01 0.41,0.02 0.41,0.01 0.39,0.02 0.39,0.01 0.39,0.01 0.38,0.02 0.37,0.01 0.36,0.01 0.36,0.01 0.36,0.01 0.35,0.01 0.34,0.01 0.34,0.01 0.33,0.01 0.33,0.01 0.33,0.01 h 0.32 l 0.31,0.01 0.31,0.01 h 0.31 l 0.3,0.02 0.3,0.03 h 0.3 0.29 0.29 0.28 0.28 0.28 0.27 0.27 0.27 0.26 0.26 0.26 0.26 0.25 0.25 0.25 0.24 0.24 0.24 0.24 0.24 0.23 0.23 0.23 0.22 0.22 0.22 0.22 0.22 0.21 0.22 0.21 0.21 0.2 0.21 0.2 0.2 0.2 0.2 0.2 0.19 0.19 0.2"
       style="fill:none;stroke:#5c88c5;stroke-width:1.13;stroke-linecap:round;stroke-linejoin:round;stroke-miterlimit:10;stroke-dasharray:3.38, 5.63;stroke-dashoffset:0;stroke-opacity:1"
       id="path370"
       inkscape:connector-curvature="0" /><path
       d="m 147.08,49.42 h 9.27 6.58 5.1 4.17 3.53 3.05 2.69 2.41 2.18 1.99 1.83 1.69 1.58 1.48 1.38 1.31 1.24 1.17 1.12 1.06 1.02 0.97 0.93 0.9 0.86 0.83 0.81 l 0.77,0.03 0.75,0.14 0.73,0.36 0.7,0.44 0.68,0.35 0.66,0.28 0.65,0.21 0.63,0.16 0.6,0.13 0.6,0.11 0.58,0.09 0.56,0.08 0.55,0.07 0.54,0.07 0.53,0.07 0.51,0.06 0.5,0.06 0.49,0.06 0.49,0.06 0.47,0.05 0.46,0.06 0.45,0.05 0.45,0.05 0.43,0.04 0.43,0.05 0.42,0.04 0.41,0.04 0.41,0.04 0.39,0.03 0.39,0.04 0.39,0.03 0.38,0.03 0.37,0.03 0.36,0.02 0.36,0.03 0.36,0.02 0.35,0.02 0.34,0.02 0.34,0.02 0.33,0.02 0.33,0.01 0.33,0.02 0.32,0.01 0.31,0.01 0.31,0.02 0.31,0.01 0.3,0.05 0.3,0.02 h 0.3 0.29 0.29 0.28 0.28 0.28 0.27 0.27 0.27 0.26 0.26 0.26 0.26 0.25 0.25 0.25 0.24 0.24 0.24 0.24 0.24 0.23 0.23 0.23 0.22 0.22 0.22 0.22 0.22 0.21 0.22 0.21 0.21 0.2 0.21 0.2 0.2 0.2 0.2 0.2 0.19 0.19 0.2"
       style="fill:none;stroke:#5c88c5;stroke-width:1.13;stroke-linecap:round;stroke-linejoin:round;stroke-miterlimit:10;stroke-dasharray:none;stroke-opacity:1"
       id="path372"
       inkscape:connector-curvature="0" /><path
       d="m 147.08,93.03 9.27,-2.62 6.58,-2.19 5.1,-1.86 4.17,-1.69 3.53,-5.5 3.05,-4.41 2.69,-3.52 2.41,-2.79 2.18,-1.99 1.99,-1.76 1.83,-1.43 1.69,-1.16 1.58,-0.95 1.48,-0.79 1.38,-0.67 1.31,-0.57 1.24,-0.49 1.17,-0.43 1.12,-0.39 1.06,-0.35 1.02,-0.32 0.97,-0.29 0.93,-0.27 0.9,-0.25 0.86,-0.26 0.83,-0.39 0.81,-0.32 0.77,-0.3 0.75,-0.36 0.73,-0.42 0.7,-0.41 0.68,-0.32 0.66,-0.25 0.65,-0.2 0.63,-0.17 0.6,-0.15 0.6,-0.13 0.58,-0.13 0.56,-0.12 0.55,-0.12 0.54,-0.12 0.53,-0.12 0.51,-0.11 0.5,-0.11 0.49,-0.1 0.49,-0.11 0.47,-0.1 0.46,-0.09 0.45,-0.09 0.45,-0.09 0.43,-0.09 0.43,-0.08 0.42,-0.08 0.41,-0.07 0.41,-0.08 0.39,-0.07 0.39,-0.06 0.39,-0.07 0.38,-0.06 0.37,-0.06 0.36,-0.06 0.36,-0.06 0.36,-0.05 0.35,-0.05 0.34,-0.06 0.34,-0.04 0.33,-0.05 0.33,-0.05 0.33,-0.04 0.32,-0.05 0.31,-0.04 0.31,-0.04 0.31,-0.1 0.3,-0.29 0.3,-0.13 h 0.3 0.29 0.29 0.28 0.28 0.28 0.27 0.27 0.27 0.26 0.26 0.26 0.26 0.25 0.25 0.25 0.24 0.24 0.24 0.24 0.24 0.23 0.23 0.23 0.22 0.22 0.22 0.22 0.22 0.21 0.22 0.21 0.21 0.2 0.21 0.2 0.2 0.2 0.2 0.2 0.19 0.19 0.2"
       style="fill:none;stroke:#000000;stroke-width:1.13;stroke-linecap:round;stroke-linejoin:round;stroke-miterlimit:10;stroke-dasharray:none;stroke-opacity:1"
       id="path374"
       inkscape:connector-curvature="0" /></g></g><g
   id="g376"><path
   d="M 147.08,49.42 H 240.7"
   style="fill:none;stroke:#000000;stroke-width:0.75;stroke-linecap:round;stroke-linejoin:round;stroke-miterlimit:10;stroke-dasharray:none;stroke-opacity:1"
   id="path378"
   inkscape:connector-curvature="0" /><path
   d="M 147.08,49.42 V 44.67"
   style="fill:none;stroke:#000000;stroke-width:0.75;stroke-linecap:round;stroke-linejoin:round;stroke-miterlimit:10;stroke-dasharray:none;stroke-opacity:1"
   id="path380"
   inkscape:connector-curvature="0" /><path
   d="M 183.88,49.42 V 44.67"
   style="fill:none;stroke:#000000;stroke-width:0.75;stroke-linecap:round;stroke-linejoin:round;stroke-miterlimit:10;stroke-dasharray:none;stroke-opacity:1"
   id="path382"
   inkscape:connector-curvature="0" /><path
   d="M 231.43,49.42 V 44.67"
   style="fill:none;stroke:#000000;stroke-width:0.75;stroke-linecap:round;stroke-linejoin:round;stroke-miterlimit:10;stroke-dasharray:none;stroke-opacity:1"
   id="path384"
   inkscape:connector-curvature="0" /><text
   transform="matrix(1,0,0,-1,141.52,32.31)"
   style="font-variant:normal;font-weight:normal;font-size:10px;font-family:Helvetica;-inkscape-font-specification:Helvetica;writing-mode:lr-tb;fill:#000000;fill-opacity:1;fill-rule:nonzero;stroke:none"
   id="text390"><tspan
     x="0 5.5599999"
     y="0"
     sodipodi:role="line"
     id="tspan388">50</tspan></text>

<text
   transform="matrix(1,0,0,-1,175.54,32.31)"
   style="font-variant:normal;font-weight:normal;font-size:10px;font-family:Helvetica;-inkscape-font-specification:Helvetica;writing-mode:lr-tb;fill:#000000;fill-opacity:1;fill-rule:nonzero;stroke:none"
   id="text394"><tspan
     x="0 5.5599999 11.12"
     y="0"
     sodipodi:role="line"
     id="tspan392">250</tspan></text>

<text
   transform="matrix(1,0,0,-1,220.31,32.31)"
   style="font-variant:normal;font-weight:normal;font-size:10px;font-family:Helvetica;-inkscape-font-specification:Helvetica;writing-mode:lr-tb;fill:#000000;fill-opacity:1;fill-rule:nonzero;stroke:none"
   id="text398"><tspan
     x="0 5.5599999 11.12 16.68"
     y="0"
     sodipodi:role="line"
     id="tspan396">2000</tspan></text>

</g><g
   id="g400"><g
     id="g402"
     clip-path="url(#clipPath406)"><path
       d="m 253.78,83.98 9.27,2.12 6.58,0.23 5.1,-0.04 4.17,0.99 3.52,0.37 3.05,0.45 2.7,0.48 2.41,0.16 2.18,-19.6 1.98,-0.83 1.83,-0.78 1.7,-0.58 1.58,-0.44 1.47,-0.32 1.39,-0.24 1.31,-0.18 1.23,-0.12 1.17,-0.09 1.12,-0.06 1.06,-0.04 1.02,-0.04 0.97,-0.03 0.94,-0.03 0.89,-0.02 0.87,0.61 0.83,0.43 0.8,0.11 0.77,-0.2 0.75,-0.31 0.73,-0.33 0.7,-0.3 0.69,-0.24 0.66,-0.2 0.64,-0.16 0.63,-0.13 0.61,-0.09 0.59,-0.07 0.58,-0.05 0.57,-0.04 0.55,-0.03 0.54,-0.03 0.52,-0.04 0.52,-0.03 0.5,-0.03 0.49,-0.04 0.48,-0.03 0.47,-0.04 0.46,-0.03 0.46,-0.03 0.44,-0.04 0.44,-0.03 0.42,-0.03 0.42,-0.03 0.42,-0.03 0.4,-0.02 0.4,-0.03 0.39,-0.03 0.38,-0.02 0.38,-0.03 0.37,-0.02 0.37,-0.03 0.36,-0.02 0.35,-0.02 0.35,-0.02 0.35,-0.02 0.33,-0.02 0.34,-0.02 0.33,-0.02 0.32,-0.02 0.32,-0.02 0.32,-0.01 0.31,-0.02 0.3,-0.01 h 0.31 l 0.3,-0.01 0.29,-0.05 0.29,-0.1 0.29,-0.19 0.28,-0.03 h 0.28 0.28 0.28 0.27 0.26 0.27 0.26 0.26 0.25 0.26 0.25 0.24 0.25 0.24 0.24 0.24 0.23 0.23 0.23 0.23 0.22 0.23 0.22 0.22 0.21 0.22 0.21 0.21 0.21 0.21 0.2 0.21 0.2 0.2 0.2 0.19 0.2 0.19 0.19"
       style="fill:none;stroke:#8f0505;stroke-width:1.13;stroke-linecap:round;stroke-linejoin:round;stroke-miterlimit:10;stroke-dasharray:3.38, 5.63;stroke-dashoffset:0;stroke-opacity:1"
       id="path408"
       inkscape:connector-curvature="0" /></g></g><g
   id="g410"><path
     d="M 253.31,49.42 H 348.6 V 157.31 H 253.31 V 49.42"
     style="fill:none;stroke:#000000;stroke-width:0.75;stroke-linecap:round;stroke-linejoin:round;stroke-miterlimit:10;stroke-dasharray:none;stroke-opacity:1"
     id="path412"
     inkscape:connector-curvature="0" /></g><g
   id="g414"><g
     id="g416"
     clip-path="url(#clipPath420)"><text
   transform="matrix(1,0,0,-1,276.61,13.31)"
   style="font-variant:normal;font-weight:normal;font-size:6px;font-family:Helvetica;-inkscape-font-specification:Helvetica;writing-mode:lr-tb;fill:#000000;fill-opacity:1;fill-rule:nonzero;stroke:none"
   id="text424"><tspan
     x="0 3 6.336 9.6719999 11.34 12.672 16.007999 19.344 21.341999 23.01 26.346001 29.681999 33.018002 34.686001 38.021999 39.689999 41.688 46.686001"
     y="0"
     sodipodi:role="line"
     id="tspan422">seafloor depth (m)</tspan></text>

<text
   transform="matrix(0,1,1,0,221.57,82.75)"
   style="font-variant:normal;font-weight:normal;font-size:6px;font-family:Helvetica;-inkscape-font-specification:Helvetica;writing-mode:lr-tb;fill:#000000;fill-opacity:1;fill-rule:nonzero;stroke:none"
   id="text428"><tspan
     x="0 4.0019999 5.3340001 8.6700001 13.668 17.004 20.004 23.004 24.672001 28.007999 30.006001"
     y="0"
     sodipodi:role="line"
     id="tspan426">Biomass gr </tspan></text>

<text
   transform="matrix(0,1,1,0,221.57,114.42)"
   style="font-variant:normal;font-weight:normal;font-size:6px;font-family:Helvetica;-inkscape-font-specification:Helvetica;writing-mode:lr-tb;fill:#000000;fill-opacity:1;fill-rule:nonzero;stroke:none"
   id="text432"><tspan
     x="0"
     y="0"
     id="tspan430">m</tspan></text>

<text
   transform="matrix(0,1,1,0,218.59,119.42)"
   style="font-variant:normal;font-weight:normal;font-size:4px;font-family:Helvetica;-inkscape-font-specification:Helvetica;writing-mode:lr-tb;fill:#000000;fill-opacity:1;fill-rule:nonzero;stroke:none"
   id="text436"><tspan
     x="0 2.336"
     y="0"
     sodipodi:role="line"
     id="tspan434">−2</tspan></text>

</g></g><g
   id="g438"><g
     id="g440"
     clip-path="url(#clipPath444)"><path
       d="m 253.78,70.41 9.27,-5 6.58,3.01 5.1,2.84 4.17,2.53 3.52,4.24 3.05,3.91 2.7,3.6 2.41,3.13 2.18,-0.93 1.98,1.73 1.83,1.35 1.7,0.91 1.58,0.61 1.47,0.39 1.39,0.26 1.31,0.16 1.23,0.08 1.17,0.03 1.12,-0.01 1.06,-0.03 1.02,-0.05 0.97,-0.06 0.94,-0.06 0.89,-0.07 0.87,0.97 0.83,0.27 0.8,-0.34 0.77,-0.53 0.75,-0.48 0.73,-0.41 0.7,-0.35 0.69,-0.31 0.66,-0.28 0.64,-0.24 0.63,-0.2 0.61,-0.15 0.59,-0.12 0.58,-0.09 0.57,-0.07 0.55,-0.05 0.54,-0.04 0.52,-0.03 0.52,-0.03 0.5,-0.03 0.49,-0.02 0.48,-0.02 0.47,-0.01 0.46,-0.02 0.46,-0.01 0.44,-0.01 0.44,-0.02 0.42,-0.01 0.42,-0.01 0.42,-0.01 0.4,-0.01 0.4,-0.01 0.39,-0.01 0.38,-0.01 0.38,-0.01 h 0.37 l 0.37,-0.01 0.36,-0.01 h 0.35 l 0.35,-0.01 0.35,-0.01 h 0.33 l 0.34,-0.01 h 0.33 l 0.32,-0.01 0.32,-0.01 h 0.32 0.31 0.3 l 0.31,0.03 0.3,0.07 0.29,0.06 0.29,-0.03 0.29,-0.19 0.28,-0.04 h 0.28 0.28 0.28 0.27 0.26 0.27 0.26 0.26 0.25 0.26 0.25 0.24 0.25 0.24 0.24 0.24 0.23 0.23 0.23 0.23 0.22 0.23 0.22 0.22 0.21 0.22 0.21 0.21 0.21 0.21 0.2 0.21 0.2 0.2 0.2 0.19 0.2 0.19 0.19"
       style="fill:none;stroke:#8f0505;stroke-width:1.13;stroke-linecap:round;stroke-linejoin:round;stroke-miterlimit:10;stroke-dasharray:none;stroke-opacity:1"
       id="path446"
       inkscape:connector-curvature="0" /><path
       d="m 253.78,49.42 h 9.27 6.58 5.1 4.17 3.52 3.05 2.7 2.41 l 2.18,25.33 1.98,1.12 1.83,1.11 1.7,0.8 1.58,0.57 1.47,0.39 1.39,0.26 1.31,0.15 1.23,0.08 1.17,0.02 h 1.12 l 1.06,-0.01 1.02,-0.02 0.97,-0.03 0.94,-0.02 0.89,-0.02 0.87,-0.77 0.83,-0.84 0.8,-0.23 0.77,0.26 0.75,0.43 0.73,0.46 0.7,0.42 0.69,0.37 0.66,0.32 0.64,0.26 0.63,0.2 0.61,0.16 0.59,0.11 0.58,0.08 0.57,0.06 0.55,0.06 0.54,0.04 0.52,0.04 0.52,0.04 0.5,0.04 0.49,0.03 0.48,0.04 0.47,0.03 0.46,0.04 0.46,0.03 0.44,0.03 0.44,0.03 0.42,0.03 0.42,0.03 0.42,0.03 0.4,0.02 0.4,0.03 0.39,0.02 0.38,0.03 0.38,0.02 0.37,0.02 0.37,0.02 0.36,0.02 0.35,0.02 0.35,0.02 0.35,0.02 0.33,0.02 0.34,0.02 0.33,0.01 0.32,0.02 0.32,0.01 0.32,0.02 0.31,0.01 h 0.3 l 0.31,-0.03 0.3,-0.02 h 0.29 l 0.29,0.09 0.29,0.24 0.28,0.04 h 0.28 0.28 0.28 0.27 0.26 0.27 0.26 0.26 0.25 0.26 0.25 0.24 0.25 0.24 0.24 0.24 0.23 0.23 0.23 0.23 0.22 0.23 0.22 0.22 0.21 0.22 0.21 0.21 0.21 0.21 0.2 0.21 0.2 0.2 0.2 0.19 0.2 0.19 0.19"
       style="fill:none;stroke:#5c88c5;stroke-width:1.13;stroke-linecap:round;stroke-linejoin:round;stroke-miterlimit:10;stroke-dasharray:3.38, 5.63;stroke-dashoffset:0;stroke-opacity:1"
       id="path448"
       inkscape:connector-curvature="0" /><path
       d="m 253.78,49.42 h 9.27 6.58 5.1 4.17 3.52 3.05 2.7 2.41 l 2.18,4.63 1.98,-0.81 1.83,-1.12 1.7,-0.64 1.58,-0.26 1.47,-0.01 1.39,0.18 1.31,0.32 1.23,0.42 1.17,0.46 1.12,0.49 1.06,0.5 1.02,0.48 0.97,0.47 0.94,0.44 0.89,0.43 0.87,-0.54 0.83,0.3 0.8,0.99 0.77,0.95 0.75,0.76 0.73,0.59 0.7,0.45 0.69,0.35 0.66,0.26 0.64,0.21 0.63,0.16 0.61,0.12 0.59,0.1 0.58,0.09 0.57,0.08 0.55,0.09 0.54,0.09 0.52,0.09 0.52,0.09 0.5,0.1 0.49,0.1 0.48,0.1 0.47,0.09 0.46,0.1 0.46,0.09 0.44,0.1 0.44,0.09 0.42,0.09 0.42,0.08 0.42,0.09 0.4,0.08 0.4,0.08 0.39,0.08 0.38,0.07 0.38,0.08 0.37,0.07 0.37,0.07 0.36,0.07 0.35,0.07 0.35,0.06 0.35,0.07 0.33,0.06 0.34,0.06 0.33,0.06 0.32,0.06 0.32,0.06 0.32,0.05 0.31,0.05 0.3,0.1 0.31,0.15 0.3,0.17 0.29,0.21 0.29,0.27 0.29,0.35 0.28,0.05 h 0.28 0.28 0.28 0.27 0.26 0.27 0.26 0.26 0.25 0.26 0.25 0.24 0.25 0.24 0.24 0.24 0.23 0.23 0.23 0.23 0.22 0.23 0.22 0.22 0.21 0.22 0.21 0.21 0.21 0.21 0.2 0.21 0.2 0.2 0.2 0.19 0.2 0.19 0.19"
       style="fill:none;stroke:#5c88c5;stroke-width:1.13;stroke-linecap:round;stroke-linejoin:round;stroke-miterlimit:10;stroke-dasharray:none;stroke-opacity:1"
       id="path450"
       inkscape:connector-curvature="0" /><path
       d="m 253.78,119.22 9.27,-0.88 6.58,-2.76 5.1,-2.11 4.17,-1.7 3.52,-8.04 3.05,-6.64 2.7,-5.6 2.41,-4.67 2.18,-9.23 1.98,-2.56 1.83,-1.76 1.7,-1.56 1.58,-1.4 1.47,-1.27 1.39,-1.16 1.31,-1.08 1.23,-1.01 1.17,-0.93 1.12,-0.87 1.06,-0.8 1.02,-0.74 0.97,-0.68 0.94,-0.64 0.89,-0.59 0.87,0.03 0.83,-0.59 0.8,-0.72 0.77,-0.59 0.75,-0.48 0.73,-0.36 0.7,-0.28 0.69,-0.22 0.66,-0.16 0.64,-0.14 0.63,-0.13 0.61,-0.13 0.59,-0.13 0.58,-0.14 0.57,-0.14 0.55,-0.15 0.54,-0.16 0.52,-0.16 0.52,-0.16 0.5,-0.17 0.49,-0.16 0.48,-0.16 0.47,-0.16 0.46,-0.15 0.46,-0.15 0.44,-0.15 0.44,-0.14 0.42,-0.14 0.42,-0.13 0.42,-0.13 0.4,-0.13 0.4,-0.12 0.39,-0.12 0.38,-0.12 0.38,-0.11 0.37,-0.11 0.37,-0.11 0.36,-0.1 0.35,-0.1 0.35,-0.1 0.35,-0.1 0.33,-0.09 0.34,-0.09 0.33,-0.09 0.32,-0.09 0.32,-0.08 0.32,-0.08 0.31,-0.08 0.3,-0.13 0.31,-0.23 0.3,-0.32 0.29,-0.44 0.29,-0.64 0.29,-0.92 0.28,-0.17 h 0.28 0.28 0.28 0.27 0.26 0.27 0.26 0.26 0.25 0.26 0.25 0.24 0.25 0.24 0.24 0.24 0.23 0.23 0.23 0.23 0.22 0.23 0.22 0.22 0.21 0.22 0.21 0.21 0.21 0.21 0.2 0.21 0.2 0.2 0.2 0.19 0.2 0.19 0.19"
       style="fill:none;stroke:#000000;stroke-width:1.13;stroke-linecap:round;stroke-linejoin:round;stroke-miterlimit:10;stroke-dasharray:none;stroke-opacity:1"
       id="path452"
       inkscape:connector-curvature="0" /></g></g><g
   id="g454"><path
   d="m 253.78,49.42 h 93.61"
   style="fill:none;stroke:#000000;stroke-width:0.75;stroke-linecap:round;stroke-linejoin:round;stroke-miterlimit:10;stroke-dasharray:none;stroke-opacity:1"
   id="path456"
   inkscape:connector-curvature="0" /><path
   d="M 253.78,49.42 V 44.67"
   style="fill:none;stroke:#000000;stroke-width:0.75;stroke-linecap:round;stroke-linejoin:round;stroke-miterlimit:10;stroke-dasharray:none;stroke-opacity:1"
   id="path458"
   inkscape:connector-curvature="0" /><path
   d="M 290.58,49.42 V 44.67"
   style="fill:none;stroke:#000000;stroke-width:0.75;stroke-linecap:round;stroke-linejoin:round;stroke-miterlimit:10;stroke-dasharray:none;stroke-opacity:1"
   id="path460"
   inkscape:connector-curvature="0" /><path
   d="M 338.12,49.42 V 44.67"
   style="fill:none;stroke:#000000;stroke-width:0.75;stroke-linecap:round;stroke-linejoin:round;stroke-miterlimit:10;stroke-dasharray:none;stroke-opacity:1"
   id="path462"
   inkscape:connector-curvature="0" /><text
   transform="matrix(1,0,0,-1,248.22,32.31)"
   style="font-variant:normal;font-weight:normal;font-size:10px;font-family:Helvetica;-inkscape-font-specification:Helvetica;writing-mode:lr-tb;fill:#000000;fill-opacity:1;fill-rule:nonzero;stroke:none"
   id="text468"><tspan
     x="0 5.5599999"
     y="0"
     sodipodi:role="line"
     id="tspan466">50</tspan></text>

<text
   transform="matrix(1,0,0,-1,282.24,32.31)"
   style="font-variant:normal;font-weight:normal;font-size:10px;font-family:Helvetica;-inkscape-font-specification:Helvetica;writing-mode:lr-tb;fill:#000000;fill-opacity:1;fill-rule:nonzero;stroke:none"
   id="text472"><tspan
     x="0 5.5599999 11.12"
     y="0"
     sodipodi:role="line"
     id="tspan470">250</tspan></text>

<text
   transform="matrix(1,0,0,-1,327,32.31)"
   style="font-variant:normal;font-weight:normal;font-size:10px;font-family:Helvetica;-inkscape-font-specification:Helvetica;writing-mode:lr-tb;fill:#000000;fill-opacity:1;fill-rule:nonzero;stroke:none"
   id="text476"><tspan
     x="0 5.5599999 11.12 16.68"
     y="0"
     sodipodi:role="line"
     id="tspan474">2000</tspan></text>

<text
   transform="scale(1,-1)"
   style="font-variant:normal;font-weight:normal;font-size:12px;font-family:Helvetica;-inkscape-font-specification:Helvetica;writing-mode:lr-tb;fill:#000000;fill-opacity:1;fill-rule:nonzero;stroke:none"
   id="text480"
   x="149.32001"
   y="-15.860001"><tspan
     x="149.32001 157.32401 163.996 170.668 174.004 176.668 183.34 190.01201 194.008 197.34399 204.01601 210.688 217.36 220.696 227.368 230.70401 234.7 244.696"
     y="-15.860001"
     sodipodi:role="line"
     id="tspan478">Seafloor depth (m)</tspan></text>


<text
   transform="matrix(0,1,1,0,15.42,202.87)"
   style="font-variant:normal;font-weight:normal;font-size:12px;font-family:Helvetica;-inkscape-font-specification:Helvetica;writing-mode:lr-tb;fill:#000000;fill-opacity:1;fill-rule:nonzero;stroke:none"
   id="text488"><tspan
     x="0"
     y="0"
     id="tspan486">m</tspan></text>

<text
   transform="matrix(0,1,1,0,9.46,212.87)"
   style="font-variant:normal;font-weight:normal;font-size:8px;font-family:Helvetica;-inkscape-font-specification:Helvetica;writing-mode:lr-tb;fill:#000000;fill-opacity:1;fill-rule:nonzero;stroke:none"
   id="text492"><tspan
     x="0 4.6719999"
     y="0"
     sodipodi:role="line"
     id="tspan490">−2</tspan></text>

<text
   xml:space="preserve"
   style="font-style:normal;font-variant:normal;font-weight:normal;font-stretch:normal;font-size:12px;line-height:1.25;font-family:arial;-inkscape-font-specification:'arial, Normal';font-variant-ligatures:normal;font-variant-caps:normal;font-variant-numeric:normal;text-align:start;letter-spacing:0px;word-spacing:0px;writing-mode:lr-tb;text-anchor:start;fill:#000000;fill-opacity:1;stroke:none;stroke-width:0.75"
   x="117.30717"
   y="-263.75525"
   id="text1458"
   transform="scale(1,-1)"><tspan
     sodipodi:role="line"
     id="tspan1456"
     x="117.30717"
     y="-263.75525"
     style="font-size:10px;stroke-width:0.75">(a)</tspan></text>

<text
   xml:space="preserve"
   style="font-style:normal;font-variant:normal;font-weight:normal;font-stretch:normal;font-size:12px;line-height:1.25;font-family:arial;-inkscape-font-specification:'arial, Normal';font-variant-ligatures:normal;font-variant-caps:normal;font-variant-numeric:normal;text-align:start;letter-spacing:0px;word-spacing:0px;writing-mode:lr-tb;text-anchor:start;fill:#000000;fill-opacity:1;stroke:none;stroke-width:0.75"
   x="225.09241"
   y="-264.14197"
   id="text1458-6"
   transform="scale(1,-1)"><tspan
     sodipodi:role="line"
     id="tspan1456-4"
     x="225.09241"
     y="-264.14197"
     style="font-size:10px;stroke-width:0.75">(b)</tspan></text>

<text
   xml:space="preserve"
   style="font-style:normal;font-variant:normal;font-weight:normal;font-stretch:normal;font-size:12px;line-height:1.25;font-family:arial;-inkscape-font-specification:'arial, Normal';font-variant-ligatures:normal;font-variant-caps:normal;font-variant-numeric:normal;text-align:start;letter-spacing:0px;word-spacing:0px;writing-mode:lr-tb;text-anchor:start;fill:#000000;fill-opacity:1;stroke:none;stroke-width:0.75"
   x="332.1644"
   y="-263.64618"
   id="text1458-6-1"
   transform="scale(1,-1)"><tspan
     sodipodi:role="line"
     id="tspan1456-4-2"
     x="332.1644"
     y="-263.64618"
     style="font-size:10px;stroke-width:0.75">(c)</tspan></text>

<text
   xml:space="preserve"
   style="font-style:normal;font-variant:normal;font-weight:normal;font-stretch:normal;font-size:12px;line-height:1.25;font-family:arial;-inkscape-font-specification:'arial, Normal';font-variant-ligatures:normal;font-variant-caps:normal;font-variant-numeric:normal;text-align:start;letter-spacing:0px;word-spacing:0px;writing-mode:lr-tb;text-anchor:start;fill:#000000;fill-opacity:1;stroke:none;stroke-width:0.75"
   x="116.31985"
   y="-143.8761"
   id="text1458-0"
   transform="scale(1,-1)"><tspan
     sodipodi:role="line"
     id="tspan1456-8"
     x="116.31985"
     y="-143.8761"
     style="font-size:10px;stroke-width:0.75">(d)</tspan></text>

<text
   xml:space="preserve"
   style="font-style:normal;font-variant:normal;font-weight:normal;font-stretch:normal;font-size:12px;line-height:1.25;font-family:arial;-inkscape-font-specification:'arial, Normal';font-variant-ligatures:normal;font-variant-caps:normal;font-variant-numeric:normal;text-align:start;letter-spacing:0px;word-spacing:0px;writing-mode:lr-tb;text-anchor:start;fill:#000000;fill-opacity:1;stroke:none;stroke-width:0.75"
   x="224.10507"
   y="-144.26277"
   id="text1458-6-9"
   transform="scale(1,-1)"><tspan
     sodipodi:role="line"
     id="tspan1456-4-7"
     x="224.10507"
     y="-144.26277"
     style="font-size:10px;stroke-width:0.75">(e)</tspan></text>

<text
   xml:space="preserve"
   style="font-style:normal;font-variant:normal;font-weight:normal;font-stretch:normal;font-size:12px;line-height:1.25;font-family:arial;-inkscape-font-specification:'arial, Normal';font-variant-ligatures:normal;font-variant-caps:normal;font-variant-numeric:normal;text-align:start;letter-spacing:0px;word-spacing:0px;writing-mode:lr-tb;text-anchor:start;fill:#000000;fill-opacity:1;stroke:none;stroke-width:0.75"
   x="334.17703"
   y="-143.76701"
   id="text1458-6-1-7"
   transform="scale(1,-1)"><tspan
     sodipodi:role="line"
     id="tspan1456-4-2-8"
     x="334.17703"
     y="-143.76701"
     style="font-size:10px;stroke-width:0.75">(f)</tspan></text>

<text
   y="16.439871"
   x="115.59988"
   transform="matrix(0,1,1,0,0,0)"
   style="font-variant:normal;font-weight:normal;font-size:12px;font-family:Helvetica;-inkscape-font-specification:Helvetica;writing-mode:lr-tb;fill:#000000;fill-opacity:1;fill-rule:nonzero;stroke:none;stroke-width:0.99999994"
   id="text890"><tspan
     style="stroke-width:0.99999994"
     x="115.59988 123.60388 126.26788 132.9399 142.9359 149.60789 155.60789 161.60789 164.94389 171.61589 174.95189 186.27989 197.60789"
     y="16.439871"
     sodipodi:role="line"
     id="tspan888">Biomass g WW</tspan></text>
</g><text
   xml:space="preserve"
   style="font-style:normal;font-variant:normal;font-weight:normal;font-stretch:normal;font-size:12px;line-height:1.25;font-family:arial;-inkscape-font-specification:'arial, Normal';font-variant-ligatures:normal;font-variant-caps:normal;font-variant-numeric:normal;text-align:start;letter-spacing:0px;word-spacing:0px;writing-mode:lr-tb;text-anchor:start;fill:#000000;fill-opacity:1;stroke:none;stroke-width:0.75"
   x="405.70352"
   y="-114.48663"
   id="text671"
   transform="scale(1,-1)"><tspan
     sodipodi:role="line"
     x="407.36758"
     y="-114.48663"
     style="font-size:12px;text-align:center;text-anchor:middle;stroke-width:0.75"
     id="tspan677">nb. classes = 12 / 9 </tspan><tspan
     sodipodi:role="line"
     x="407.36758"
     y="-99.486633"
     style="font-size:12px;text-align:center;text-anchor:middle;stroke-width:0.75"
     id="tspan679">(lower preference for </tspan><tspan
     sodipodi:role="line"
     x="405.70352"
     y="-84.486633"
     style="font-size:12px;text-align:center;text-anchor:middle;stroke-width:0.75"
     id="tspan683"> adult epipelagic /</tspan><tspan
     sodipodi:role="line"
     x="405.70352"
     y="-69.486633"
     style="font-size:12px;text-align:center;text-anchor:middle;stroke-width:0.75"
     id="tspan687">mesopelagic fish)</tspan></text>

<text
   xml:space="preserve"
   style="font-style:normal;font-variant:normal;font-weight:normal;font-stretch:normal;font-size:12px;line-height:1.25;font-family:arial;-inkscape-font-specification:'arial, Normal';font-variant-ligatures:normal;font-variant-caps:normal;font-variant-numeric:normal;text-align:start;letter-spacing:0px;word-spacing:0px;writing-mode:lr-tb;text-anchor:start;fill:#000000;fill-opacity:1;stroke:none;stroke-width:0.75"
   x="352.66388"
   y="-227.80016"
   id="text336-1"
   transform="scale(1,-1)"><tspan
     sodipodi:role="line"
     id="tspan334-8"
     x="352.66388"
     y="-227.80016"
     style="stroke-width:0.75">nb. classes = 6 / 4</tspan><tspan
     sodipodi:role="line"
     x="352.66388"
     y="-212.80016"
     style="stroke-width:0.75"
     id="tspan338-6">(similar to Fig. 4,</tspan><tspan
     sodipodi:role="line"
     x="352.66388"
     y="-197.80016"
     style="stroke-width:0.75"
     id="tspan341">main manuscript)</tspan></text>

<path
   d="M 77.480416,307.56384 H 94.520417"
   style="fill:none;stroke:#8f0505;stroke-width:1.13;stroke-linecap:round;stroke-linejoin:round;stroke-miterlimit:10;stroke-dasharray:none;stroke-opacity:1"
   id="path26-5"
   inkscape:connector-curvature="0" /><path
   d="M 77.480416,298.39384 H 94.520417"
   style="fill:none;stroke:#5c88c5;stroke-width:1.13;stroke-linecap:round;stroke-linejoin:round;stroke-miterlimit:10;stroke-dasharray:none;stroke-opacity:1"
   id="path28-3"
   inkscape:connector-curvature="0" /><path
   d="M 77.480416,289.21384 H 94.520417"
   style="fill:none;stroke:#000000;stroke-width:1.13;stroke-linecap:round;stroke-linejoin:round;stroke-miterlimit:10;stroke-dasharray:none;stroke-opacity:1"
   id="path30"
   inkscape:connector-curvature="0" /><text
   y="-303.97382"
   x="103.0404"
   style="font-variant:normal;font-weight:normal;font-size:10px;font-family:Helvetica;-inkscape-font-specification:Helvetica;writing-mode:lr-tb;fill:#000000;fill-opacity:1;fill-rule:nonzero;stroke:none;stroke-width:0.99999994"
   id="text38-3"
   transform="scale(1,-1)"><tspan
     style="stroke-width:0.99999994"
     x="103.0404 105.2604 110.82046 114.15041 119.71045 125.27045 128.05043 133.61043 139.17043 141.39043 146.95041 152.51039 154.73042"
     y="-303.97382"
     sodipodi:role="line"
     id="tspan36-2">large pelagic</tspan></text>

<text
   y="-294.8038"
   x="103.0404"
   style="font-variant:normal;font-weight:normal;font-size:10px;font-family:Helvetica;-inkscape-font-specification:Helvetica;writing-mode:lr-tb;fill:#000000;fill-opacity:1;fill-rule:nonzero;stroke:none;stroke-width:0.99999994"
   id="text42-3"
   transform="scale(1,-1)"><tspan
     style="stroke-width:0.99999994"
     x="103.0404 111.37043 113.59045 119.15044 124.99042 132.06044 137.62044 140.40044 145.96039 149.29042 152.07036 157.63045 160.96043 166.52043 172.08043 177.64041 180.42041 185.98039"
     y="-294.8038"
     sodipodi:role="line"
     id="tspan40-5">mid−water predator</tspan></text>

<text
   y="-285.62381"
   x="103.0404"
   style="font-variant:normal;font-weight:normal;font-size:10px;font-family:Helvetica;-inkscape-font-specification:Helvetica;writing-mode:lr-tb;fill:#000000;fill-opacity:1;fill-rule:nonzero;stroke:none;stroke-width:0.99999994"
   id="text46-7"
   transform="scale(1,-1)"><tspan
     style="stroke-width:0.99999994"
     x="103.0404 108.60043 114.16045 122.49045 128.05043 131.3804 136.38045 141.94044"
     y="-285.62381"
     sodipodi:role="line"
     id="tspan44-1">demersal</tspan></text>

<path
   d="m 198.97497,306.77553 h 17.04"
   style="fill:none;stroke:#8f0505;stroke-width:1.13;stroke-linecap:round;stroke-linejoin:round;stroke-miterlimit:10;stroke-dasharray:3.38, 5.63;stroke-dashoffset:0;stroke-opacity:1"
   id="path32-7"
   inkscape:connector-curvature="0" /><path
   d="m 198.97497,297.60553 h 17.04"
   style="fill:none;stroke:#5c88c5;stroke-width:1.13;stroke-linecap:round;stroke-linejoin:round;stroke-miterlimit:10;stroke-dasharray:3.38, 5.63;stroke-dashoffset:0;stroke-opacity:1"
   id="path34-3"
   inkscape:connector-curvature="0" /><text
   y="-294.0155"
   x="220.03494"
   style="font-variant:normal;font-weight:normal;font-size:10px;font-family:Helvetica;-inkscape-font-specification:Helvetica;writing-mode:lr-tb;fill:#000000;fill-opacity:1;fill-rule:nonzero;stroke:none;stroke-width:0.99999994"
   id="text54"
   transform="scale(1,-1)"><tspan
     style="stroke-width:0.99999994"
     x="220.03494 228.36496 233.92497 238.92497 244.48497 250.04494 255.60493 257.82492 263.38492 268.94492 271.16489 276.16495 278.94492 281.72495 283.94492 288.94492"
     y="-294.0155"
     sodipodi:role="line"
     id="tspan52">mesopelagic fish</tspan></text>

<text
   xml:space="preserve"
   style="font-style:normal;font-variant:normal;font-weight:normal;font-stretch:normal;font-size:12px;line-height:1.25;font-family:arial;-inkscape-font-specification:'arial, Normal';font-variant-ligatures:normal;font-variant-caps:normal;font-variant-numeric:normal;text-align:start;letter-spacing:0px;word-spacing:0px;writing-mode:lr-tb;text-anchor:start;fill:#000000;fill-opacity:1;stroke:none;stroke-width:0.75"
   x="219.66101"
   y="-304.06357"
   id="text656"
   transform="scale(1,-1)"><tspan
     sodipodi:role="line"
     id="tspan654"
     x="219.66101"
     y="-304.06357"
     style="font-size:10px;stroke-width:0.75">epipelagic fish</tspan></text>

</g></svg>